<svg width="1037" height="758" viewBox="0 0 1037 758" fill="none" xmlns="http://www.w3.org/2000/svg">
<g clip-path="url(#clip0_222_9770)">
<path d="M285.965 72.4836L288.616 127.76C299.607 142.419 311.464 159.194 323.166 177.476L324.837 93.1463L325.759 93.7355C312.223 84.0658 298.463 76.6675 285.043 71.9712L285.965 72.4836Z" fill="#6D2C32"/>
<path d="M286.683 125.192L284.115 71.6471C269.044 66.5071 254.42 64.802 241.053 67.1858C240.358 67.3099 239.674 67.4526 238.992 67.5974C242.389 71.2412 262.181 92.7606 286.683 125.192Z" fill="#6D2C32"/>
<path d="M408.377 191.139L409.267 191.988C405.614 185.118 401.742 178.438 397.651 171.949L372.726 270.022L372.305 269.65C374.107 273.952 375.82 278.225 377.446 282.469L408.377 191.139Z" fill="#6D2C32"/>
<path d="M370.406 135.383L371.324 136.118C358.146 120.504 343.166 106.507 326.696 94.417L324.992 180.354C335.882 197.539 345.632 214.467 354.242 231.136L370.406 135.383Z" fill="#6D2C32"/>
<path d="M189.602 162.213C191.002 176.698 193.862 191.004 198.138 204.914L346.77 220.244C339.011 205.936 331.001 192.512 323.225 180.277L189.979 163.381L189.602 162.213Z" fill="#6D2C32"/>
<path d="M203.545 220.954L203.145 219.788L353.573 233.159C351.756 229.604 349.919 226.096 348.061 222.636L198.88 207.249L198.488 206.081C199.992 210.984 201.677 215.941 203.545 220.954Z" fill="#6D2C32"/>
<path d="M395.954 169.905L396.858 170.702C389.4 158.972 381.159 147.759 372.191 137.139L355.809 234.187C361.487 245.335 366.629 256.326 371.237 267.16L395.954 169.905Z" fill="#6D2C32"/>
<path d="M392.773 332.019C398.752 357.889 401.017 382.35 399.522 405.132C407.934 387.208 439.925 312.954 427.967 243.752L392.773 332.019Z" fill="#6D2C32"/>
<path d="M231.141 273.257C239.1 283.979 247.769 294.155 257.09 303.717L256.727 302.421L390.538 329.949C387.057 315.503 382.712 301.279 377.528 287.353L231.141 273.257Z" fill="#6D2C32"/>
<path d="M285.529 126.095C259.01 91.0133 238.086 68.8401 237.785 68.5228L238.13 67.7837C218.006 72.3522 203.798 86.0437 195.98 105.861L285.529 126.095Z" fill="#6D2C32"/>
<path d="M378.684 285.761C379.178 287.081 379.68 288.403 380.157 289.717C384.753 302.307 388.66 315.137 391.86 328.152L426.72 240.723L427.571 241.577C425.364 229.411 421.625 217.573 416.442 206.348C414.386 201.946 412.233 197.611 409.984 193.342L378.684 285.761Z" fill="#6D2C32"/>
<path d="M321.669 177.839C310.087 159.772 298.365 143.199 287.499 128.713L195.897 108.014L195.586 106.858C189.868 121.917 187.777 140.418 189.509 161.081L321.669 177.839Z" fill="#6D2C32"/>
<path d="M391.082 332.246L258.25 304.919C314.122 362.274 392.29 406.26 397.279 409.041C399.607 383.771 396.967 357.815 391.082 332.246Z" fill="#6D2C32"/>
<path d="M376.589 284.999L376.619 284.911C370.232 268.073 362.943 251.591 354.783 235.537L203.984 222.132C206.545 228.912 209.438 235.764 212.665 242.689C217.365 252.555 222.955 261.972 229.366 270.822L376.589 284.999Z" fill="#6D2C32"/>
<path d="M568.411 258.67L535.198 302.935C534.313 321.235 532.746 341.718 530.098 363.262L585.171 299.378L585.506 300.42C581.248 284.339 575.369 269.864 568.028 257.688L568.411 258.67Z" fill="#6D2C32"/>
<path d="M535.348 299.724L567.522 256.847C559.192 243.275 549.017 232.635 537.201 225.945C536.587 225.597 535.969 225.271 535.351 224.948C535.643 229.92 537.162 259.118 535.348 299.724Z" fill="#6D2C32"/>
<path d="M587.013 428.134L587.156 429.355C588.725 421.734 590.003 414.12 590.991 406.513L509.242 466.15L509.154 465.595C507.798 470.058 506.392 474.442 504.938 478.747L587.013 428.134Z" fill="#6D2C32"/>
<path d="M593.331 360.973L593.569 362.125C593.378 341.694 590.769 321.359 585.794 301.543L529.671 366.644C527.097 386.826 523.809 406.081 519.809 424.411L593.331 360.973Z" fill="#6D2C32"/>
<path d="M436.965 266.318C428.805 278.367 421.883 291.21 416.305 304.651L521.001 411.258C524.151 395.288 526.544 379.841 528.359 365.458L436.511 267.459L436.965 266.318Z" fill="#6D2C32"/>
<path d="M410.238 320.454L410.674 319.3L518.004 425.544C518.872 421.647 519.694 417.774 520.47 413.924L415.387 306.923L415.83 305.774C413.861 310.509 411.997 315.402 410.238 320.454Z" fill="#6D2C32"/>
<path d="M590.989 403.858L591.177 405.049C592.915 391.258 593.719 377.365 593.586 363.466L519.07 427.762C516.333 439.969 513.283 451.715 509.922 462.998L590.989 403.858Z" fill="#6D2C32"/>
<path d="M485.138 526.687C473.242 550.426 459.385 570.71 443.703 587.302C461.614 578.863 533.614 542.078 568.541 481.152L485.138 526.687Z" fill="#6D2C32"/>
<path d="M398.131 378.338C397.423 391.672 397.61 405.039 398.689 418.349L399.236 417.119L484.738 523.668C491.271 510.321 496.997 496.595 501.886 482.563L398.131 378.338Z" fill="#6D2C32"/>
<path d="M533.88 299.683C535.831 255.75 533.858 225.327 533.829 224.89L534.566 224.541C516.153 215.225 496.477 216.707 477.816 226.984L533.88 299.683Z" fill="#6D2C32"/>
<path d="M503.791 482.072C503.33 483.404 502.874 484.743 502.403 486.059C497.913 498.687 492.738 511.06 486.902 523.125L569.514 478.022L569.626 479.223C575.685 468.445 580.355 456.943 583.523 444.992C584.747 440.29 585.854 435.578 586.845 430.856L503.791 482.072Z" fill="#6D2C32"/>
<path d="M528.714 362.587C531.316 341.285 532.858 321.044 533.73 302.956L476.38 228.589L476.879 227.5C462.869 235.452 449.459 248.367 437.613 265.386L528.714 362.587Z" fill="#6D2C32"/>
<path d="M483.692 525.782L398.816 420.013C405.266 499.823 437.415 583.558 439.485 588.881C457.395 570.904 471.917 549.228 483.692 525.782Z" fill="#6D2C32"/>
<path d="M502.664 480.149L502.743 480.1C508.564 463.058 513.462 445.715 517.417 428.146L409.823 321.64C407.471 328.495 405.329 335.618 403.397 343.009C400.724 353.605 399.024 364.423 398.316 375.328L502.664 480.149Z" fill="#6D2C32"/>
<path d="M237.238 317.768L256.846 369.518C271.829 380.062 288.291 392.35 305.071 406.12L280.594 325.404L281.653 325.679C265.79 320.667 250.417 317.884 236.203 317.566L237.238 317.768Z" fill="#6D2C32"/>
<path d="M254.216 367.673L235.224 317.544C219.302 317.314 204.867 320.213 192.892 326.612C192.269 326.945 191.663 327.292 191.059 327.64C195.415 330.056 220.89 344.404 254.216 367.673Z" fill="#6D2C32"/>
<path d="M390.331 392.775L391.44 393.308C385.843 387.903 380.096 382.748 374.199 377.841L380.809 478.815L380.293 478.592C383.337 482.127 386.287 485.661 389.145 489.194L390.331 392.775Z" fill="#6D2C32"/>
<path d="M336.986 351.486L338.086 351.901C320.728 341.126 302.154 332.444 282.754 326.037L307.697 408.292C323.365 421.27 337.87 434.355 351.21 447.547L336.986 351.486Z" fill="#6D2C32"/>
<path d="M173.332 432.888C179.141 446.231 186.283 458.953 194.65 470.859L340.742 439.498C328.94 428.288 317.173 417.997 305.996 408.765L174.053 433.883L173.332 432.888Z" fill="#6D2C32"/>
<path d="M204.75 484.443L204.009 483.457L351.204 449.677C348.377 446.858 345.545 444.09 342.709 441.373L196.078 472.851L195.344 471.861C198.289 476.059 201.424 480.253 204.75 484.443Z" fill="#6D2C32"/>
<path d="M371.957 376.42L373.064 376.899C362.345 368.049 351.042 359.932 339.23 352.604L353.647 449.963C362.493 458.81 370.781 467.673 378.512 476.553L371.957 376.42Z" fill="#6D2C32"/>
<path d="M419.039 531.579C432.721 554.335 442.436 576.898 448.056 599.026C450.516 579.38 457.989 498.874 425.226 436.757L419.039 531.579Z" fill="#6D2C32"/>
<path d="M247.16 525.655C258.044 533.391 269.434 540.389 281.254 546.603L280.508 545.482L416.275 530.302C408.499 517.639 399.971 505.455 390.736 493.813L247.16 525.655Z" fill="#6D2C32"/>
<path d="M253.394 368.889C217.33 343.722 190.577 329.102 190.193 328.893L190.292 328.084C172.566 338.649 163.286 356.061 161.977 377.325L253.394 368.889Z" fill="#6D2C32"/>
<path d="M391.34 491.942C392.218 493.045 393.104 494.147 393.964 495.249C402.226 505.802 409.908 516.797 416.974 528.184L423.102 434.261L424.176 434.81C418.317 423.923 411.101 413.821 402.703 404.747C399.387 401.196 395.999 397.739 392.541 394.374L391.34 491.942Z" fill="#6D2C32"/>
<path d="M303.76 406.928C287.161 393.326 270.889 381.188 256.078 370.769L162.563 379.398L161.911 378.395C161.127 394.484 164.857 412.725 172.891 431.841L303.76 406.928Z" fill="#6D2C32"/>
<path d="M417.5 532.319L282.727 547.388C353.59 584.664 441.527 602.335 447.131 603.437C441.534 578.685 431 554.816 417.5 532.319Z" fill="#6D2C32"/>
<path d="M389.111 491.865L389.113 491.772C377.834 477.733 365.807 464.311 353.085 451.565L205.527 485.429C210.058 491.085 214.928 496.707 220.137 502.296C227.656 510.226 235.883 517.453 244.715 523.888L389.111 491.865Z" fill="#6D2C32"/>
<path d="M1036.61 634.001C1036.61 678.736 806.484 758.001 522.609 758.001C238.735 758.001 8.60938 678.736 8.60938 634.001C8.60938 589.266 238.735 596.001 522.609 596.001C806.484 596.001 1036.61 589.266 1036.61 634.001Z" fill="#1D2033"/>
<path d="M522.609 715.001C806.484 715.001 1036.61 678.736 1036.61 634.001C1036.61 589.266 806.484 553.001 522.609 553.001C238.735 553.001 8.60938 589.266 8.60938 634.001C8.60938 678.736 238.735 715.001 522.609 715.001Z" fill="#212438"/>
<path opacity="0.1" d="M611.72 549.339C611.72 598.076 543.786 583.001 460.608 583.001C377.429 583.001 310.504 598.076 310.504 549.339C310.504 500.601 378.429 490.001 461.608 490.001C544.786 490.001 611.72 500.601 611.72 549.339Z" fill="black"/>
<path d="M611.72 537.339C611.72 586.076 543.786 571.001 460.608 571.001C377.429 571.001 310.504 586.076 310.504 537.339C310.504 488.601 378.429 478.001 461.608 478.001C544.786 478.001 611.72 488.601 611.72 537.339Z" fill="#212438"/>
<path d="M344.137 403.233C345.967 401.931 347.986 400.918 350.124 400.231C363.679 395.187 377.881 392.096 392.306 391.048C404.849 390.159 418.443 391.215 428.239 399.098C429.763 400.216 431.01 401.669 431.884 403.345C433.117 406.004 432.743 409.096 432.344 412C432.255 413.126 431.971 414.229 431.505 415.258C430.186 417.768 426.941 418.647 424.122 418.346C421.303 418.045 418.657 416.853 415.877 416.3C414.156 416 412.415 415.822 410.669 415.769L393.229 414.825C382.385 414.238 371.397 413.661 360.76 415.849C357.485 416.438 354.321 417.528 351.378 419.082C348.949 420.446 347.313 422.404 345.058 419.884C341.097 415.457 338.905 407.322 344.137 403.233Z" fill="#2F2E41"/>
<path d="M371.162 410.945C371.162 410.945 394.619 400.43 403.516 412.563C412.414 424.696 398.663 419.843 398.663 419.843L383.295 424.696L366.309 421.46L371.162 410.945Z" fill="#F2F2F2"/>
<path d="M372.375 403.261C372.375 403.261 375.61 418.629 373.184 422.674C370.757 426.718 386.935 432.38 386.935 432.38L402.303 425.909C402.303 425.909 398.259 400.834 402.303 395.981L372.375 403.261Z" fill="#FFB9B9"/>
<path opacity="0.1" d="M372.375 403.261C372.375 403.261 375.61 418.629 373.184 422.674C370.757 426.718 386.935 432.38 386.935 432.38L402.303 425.909C402.303 425.909 398.259 400.834 402.303 395.981L372.375 403.261Z" fill="black"/>
<path d="M357.221 588.056C359.395 592.565 361.184 597.251 362.566 602.063C362.588 602.222 362.644 602.375 362.73 602.51C362.816 602.646 362.929 602.762 363.063 602.851C363.196 602.94 363.347 603 363.506 603.026C363.664 603.053 363.826 603.045 363.981 603.005L378.369 602.989C380.145 602.987 382.527 602.417 382.508 600.641C382.495 599.394 381.22 598.616 380.271 597.806C377.637 595.559 376.952 591.853 375.861 588.568C373.741 582.238 369.655 576.75 364.199 572.904C363.461 572.326 362.612 571.907 361.705 571.672C360.793 571.539 359.864 571.59 358.972 571.82C356.446 572.329 347.015 574.073 348.797 577.746C349.564 579.328 352.407 580.975 353.599 582.452C354.988 584.196 356.201 586.073 357.221 588.056Z" fill="#575A89"/>
<path d="M407.25 571.369C406.743 572.435 406.179 573.473 405.559 574.478C403.475 577.916 401.015 581.123 399.074 584.643C397.765 586.794 396.957 589.212 396.71 591.717C396.599 592.97 396.791 594.231 397.269 595.394C397.747 596.557 398.497 597.589 399.456 598.402C401.545 599.987 404.408 600.06 407.004 599.691C409.599 599.322 412.18 598.578 414.795 598.774C413.913 593.786 418.12 589.396 419.172 584.441C419.468 583.049 419.511 581.606 419.908 580.239C420.334 578.99 420.879 577.784 421.536 576.639C423.631 572.559 425.111 568.192 425.93 563.68C426.029 563.133 413.141 563.043 411.932 563.304C408.159 564.12 408.711 568.24 407.25 571.369Z" fill="#575A89"/>
<path d="M307.911 493.003C304.232 498.761 305.08 506.391 307.664 512.717C310.248 519.042 314.361 524.634 317.176 530.86C318.97 534.829 320.229 539.038 322.25 542.897C324.752 547.675 328.406 551.888 330.085 557.014C331.155 560.281 331.401 563.863 333.135 566.832C334.183 568.419 335.379 569.903 336.707 571.264C340.442 575.543 343.246 580.551 344.941 585.972C346.526 581.251 351.272 578.156 356.146 577.135C361.02 576.114 366.07 576.807 371.001 577.504C368.25 573.243 365.473 568.927 363.833 564.128C362.247 559.486 361.78 554.548 360.711 549.761C358.521 539.943 353.842 530.888 349.209 521.96L373.02 520.071C376.906 519.681 380.813 519.536 384.718 519.637C390.864 519.927 396.884 521.433 402.997 522.13C409.11 522.826 415.577 522.644 421.025 519.784C410.608 534.731 405.183 552.588 405.525 570.804C407.853 569 410.556 567.739 413.434 567.115C416.312 566.49 419.294 566.517 422.161 567.193C425.027 567.87 427.706 569.179 430.002 571.025C432.297 572.87 434.151 575.206 435.427 577.86C444.758 565.109 443.648 547.358 451.042 533.394C452.563 530.522 454.426 527.848 456.067 525.043C459.167 519.412 461.822 513.546 464.006 507.499C466.074 502.209 468.158 496.323 466.174 491.001C465.351 488.981 464.151 487.137 462.639 485.565C458.373 480.862 452.435 477.382 446.087 477.237C436.342 477.015 428.291 484.239 419.743 488.923C409.537 494.347 397.994 496.741 386.474 495.822C374.731 494.991 363.517 491.147 352.329 487.762C346.733 485.99 341.044 484.522 335.289 483.366C330.491 482.466 325.922 483.463 321.195 484.69C316.047 486.026 310.874 488.367 307.911 493.003Z" fill="#2F2E41"/>
<path d="M409.585 387.893C409.579 394.327 407.021 400.496 402.471 405.045C397.922 409.595 391.753 412.153 385.319 412.158C383.873 412.161 382.43 412.031 381.007 411.77C376.466 410.95 372.253 408.852 368.862 405.722C365.471 402.592 363.043 398.56 361.862 394.099C360.682 389.638 360.798 384.932 362.197 380.535C363.596 376.137 366.22 372.23 369.761 369.271C373.302 366.312 377.614 364.424 382.19 363.829C386.766 363.234 391.418 363.956 395.598 365.911C399.778 367.866 403.314 370.972 405.792 374.865C408.269 378.759 409.585 383.278 409.585 387.893Z" fill="#FFB9B9"/>
<path d="M371.163 410.945C371.163 410.945 375.612 412.967 377.23 414.585C378.847 416.203 383.7 425.1 391.789 419.438C399.878 413.776 400.687 410.541 403.113 410.541C405.54 410.541 408.775 415.394 408.775 415.394L431.019 482.125C425.024 488.892 418.076 494.75 410.393 499.516C397.451 507.604 382.083 511.649 374.803 508.413C367.523 505.178 353.773 502.751 351.346 496.28C348.919 489.809 344.875 470.397 344.875 470.397L356.199 421.056L371.163 410.945Z" fill="#F2F2F2"/>
<path d="M368.038 478.435C369.802 474.626 370.058 470.315 370.207 466.12C370.445 461.965 370.335 457.798 369.878 453.661C369.161 448.251 367.399 443.038 366.287 437.695C365.311 433.008 364.837 428.232 364.872 423.445C364.888 421.261 365.047 418.961 366.237 417.13C367.067 415.852 368.366 414.863 368.885 413.43C369.902 410.621 367.388 407.679 364.634 406.522C361.278 405.264 357.608 405.117 354.163 406.102C350.745 407.089 347.443 408.44 344.314 410.131C341.947 411.14 339.77 412.547 337.878 414.291C335.368 416.889 334.264 420.508 333.372 424.009C332.659 426.812 332.024 429.734 332.567 432.575C333.449 437.187 337.209 440.656 339.214 444.903C341.541 449.835 341.385 455.581 340.459 460.955C339.533 466.329 337.889 471.584 337.383 477.013C336.876 482.443 337.654 488.279 341.055 492.542C342.442 494.278 346.202 498.395 348.74 497.929C350.733 497.563 353.624 493.174 355.23 491.783C359.869 487.764 365.374 484.19 368.038 478.435Z" fill="#2F2E41"/>
<path d="M410.42 408.307C410.491 412.818 408.502 417.107 406.164 420.965C403.825 424.823 401.078 428.473 399.354 432.642C397.213 437.862 396.776 443.625 398.105 449.108C398.599 450.976 399.195 452.815 399.89 454.618L404.322 466.774C404.918 468.685 405.783 470.502 406.891 472.169C407.893 473.447 409.069 474.577 410.384 475.529C413.75 478.248 417.624 480.268 421.78 481.474C425.964 482.671 430.43 482.416 434.451 480.751C434.879 464.272 437.526 447.925 442.322 432.153C443.209 429.242 444.177 426.177 443.493 423.211C442.728 419.889 440.06 417.395 437.523 415.118C429.766 408.152 421.237 400.835 410.854 399.896C404.844 399.353 410.369 405.046 410.42 408.307Z" fill="#2F2E41"/>
<path d="M357.337 502.349C357.952 503.554 358.335 504.865 358.943 506.073C359.841 507.692 360.951 509.185 362.244 510.511C367.652 516.508 374.263 522.482 382.33 522.843C383.132 522.918 383.94 522.817 384.698 522.545C385.38 522.196 385.966 521.685 386.405 521.057C386.844 520.43 387.123 519.704 387.217 518.943C387.789 515.811 386.407 512.685 385.022 509.817C382.021 503.603 378.645 497.23 373.027 493.222C370.222 491.299 367.017 490.038 363.654 489.532C360.291 489.026 356.857 489.289 353.61 490.301C350.684 491.202 345.831 492.776 349.706 495.446C352.645 497.472 355.633 499.014 357.337 502.349Z" fill="#FFB9B9"/>
<path d="M392.21 423.225C391.368 420.951 390.077 418.87 388.414 417.105C386.736 415.687 384.751 414.681 382.615 414.167C379.848 413.377 376.986 412.966 374.109 412.948C370.683 412.927 366.711 413.845 365.256 416.947C364.101 419.41 364.997 422.326 366.16 424.785C366.657 426.059 367.485 427.177 368.558 428.025C370.035 429.023 371.946 428.991 373.697 429.325C376.412 430.015 378.984 431.18 381.292 432.767L387.292 436.394L397.598 442.623C397.327 442.459 397.423 435.392 397.107 434.234C396.087 430.503 393.791 426.759 392.21 423.225Z" fill="#FFB9B9"/>
<path d="M362.189 600.232C359.777 603.509 360.261 608.193 358.124 611.656C356.273 614.658 352.783 616.231 350.467 618.891C349.728 619.775 349.069 620.723 348.499 621.723C346.35 625.322 344.604 629.934 346.72 633.552C348.422 636.462 352 637.6 355.281 638.375C359.428 639.355 363.737 640.139 367.932 639.39C372.128 638.641 376.228 636.073 377.723 632.082C378.017 631.079 378.367 630.093 378.77 629.128C381.044 624.652 388.176 624.603 390.503 620.154C392.132 617.041 390.635 613.277 389.138 610.098L384.568 600.389C383.051 597.167 376.903 599.02 373.698 598.247C369.517 597.24 365.196 596.131 362.189 600.232Z" fill="#2F2E41"/>
<path d="M397.541 591.891C395.67 593.364 394.239 595.324 393.406 597.556C391.144 602.774 390.367 608.495 389.613 614.132C389.183 616.374 389.139 618.673 389.482 620.931C390.457 625.534 394.629 628.925 399.119 630.332C403.609 631.74 408.426 631.523 413.126 631.293C414.642 631.331 416.147 631.026 417.529 630.398C419.891 629.096 420.814 626.034 420.409 623.367C420.004 620.701 418.547 618.328 417.12 616.038C415.694 613.749 414.236 611.377 413.828 608.711C413.141 604.226 415.079 597.642 412.324 593.584C409.563 589.518 401.226 589.308 397.541 591.891Z" fill="#2F2E41"/>
<path d="M408.975 375.246C408.543 373.795 407.592 372.554 406.304 371.759C406.37 370.205 406.18 368.65 405.74 367.158C404.27 362.813 400.789 363.062 397.504 361.142C396.079 360.308 396.167 359.572 395.425 358.203C394.453 356.409 392.997 354.923 391.223 353.915C389.115 352.572 386.891 351.19 384.398 351.02C379.159 350.663 375.142 355.59 370.135 357.172C367.928 357.869 365.556 357.898 363.337 358.557C361.119 359.216 358.905 360.789 358.574 363.08C358.422 364.137 358.691 365.222 358.536 366.28C358.228 368.381 356.385 369.853 355.151 371.581C352.421 375.403 352.734 380.803 354.916 384.962C355.376 385.822 355.902 386.646 356.49 387.424C356.672 389.39 357.237 391.301 358.152 393.05C360.334 397.209 364.09 400.317 368.013 402.898C367.692 401.519 367.497 400.113 367.431 398.699C367.376 398.227 367.437 397.75 367.61 397.307C368.047 396.394 369.201 396.151 370.081 395.651C371.905 394.615 372.62 392.322 372.672 390.226C372.725 388.129 372.281 386.03 372.5 383.944C372.509 383.465 372.618 382.992 372.82 382.557C373.023 382.122 373.314 381.735 373.675 381.419C374.348 381.035 375.117 380.852 375.891 380.891C379.626 380.739 383.529 380.67 386.824 378.904C387.887 378.198 389.029 377.62 390.227 377.182C393.028 376.452 395.89 378.415 397.503 380.817C399.117 383.219 399.922 386.077 401.411 388.559C402.9 391.04 405.472 393.253 408.351 392.959C408.513 392.959 408.674 392.926 408.822 392.86C408.97 392.794 409.102 392.697 409.211 392.577C409.335 392.354 409.39 392.099 409.369 391.844L409.53 380.84C409.664 378.957 409.476 377.066 408.975 375.246Z" fill="#2F2E41"/>
<path d="M332.179 432.809C329.864 436.225 327.194 439.509 325.922 443.435C325.174 445.742 324.941 448.18 324.4 450.545C322.596 458.419 317.385 465.413 316.861 473.474C316.678 475.265 316.941 477.074 317.627 478.739C319.122 481.991 322.699 483.704 326.112 484.782C329.525 485.86 333.189 486.637 335.913 488.958C337.285 490.273 338.528 491.714 339.627 493.264C344.071 498.791 350.05 502.881 356.811 505.021C356.277 501.341 356.027 496.904 358.969 494.629C360.561 493.398 362.689 493.179 364.695 493.005L374.172 492.186C367.853 486.057 360.887 480.63 353.397 476.002C350.776 474.383 347.924 472.675 346.727 469.837C346.109 468.008 345.853 466.076 345.972 464.149C345.907 457.101 345.31 450.067 344.186 443.109C343.406 438.277 342.373 433.488 341.192 428.739C340.86 427.405 338.899 421.425 336.486 422.824C335.918 423.154 335.386 426.948 335.054 427.735C334.264 429.516 333.301 431.216 332.179 432.809Z" fill="#2F2E41"/>
<path d="M441.334 419.902L445.205 427.951C447.069 431.261 447.918 435.046 447.645 438.835L447.875 462.98C448.053 466.206 447.786 469.441 447.081 472.594C446.839 473.633 446.385 474.611 445.746 475.465C445.089 476.202 444.316 476.825 443.457 477.309C436.132 481.886 426.634 484.487 418.895 480.652C417.123 479.707 415.437 478.607 413.859 477.365C410.775 475.081 407.645 472.752 405.338 469.685C402.923 466.475 401.539 462.632 399.914 458.959C396.998 452.369 393.231 446.19 388.709 440.579C387.959 439.838 387.472 438.872 387.321 437.829C387.273 435.712 389.784 434.671 391.742 433.865C395.087 432.49 398.241 429.835 398.8 426.262C405.913 435.589 413.762 445.444 424.985 448.853C425.161 448.965 425.364 449.028 425.573 449.034C425.782 449.041 425.988 448.99 426.171 448.889C426.354 448.787 426.505 448.639 426.61 448.458C426.715 448.277 426.769 448.072 426.767 447.863C427.403 445.197 427.629 442.452 428.095 439.751C428.95 434.833 430.596 430.086 432.969 425.695C434.298 423.233 438.603 414.22 441.334 419.902Z" fill="#2F2E41"/>
<path opacity="0.1" d="M345.296 443.178C345.402 448.892 344.189 454.554 341.749 459.721C341.114 460.864 340.646 462.091 340.36 463.366C339.935 466.085 341.483 468.718 343.252 470.826C346.741 474.973 351.267 478.122 356.369 479.952" fill="black"/>
<path opacity="0.1" d="M429.339 438.363C428.768 439.896 429.286 441.592 429.726 443.168C430.999 447.739 431.594 452.473 431.49 457.217C431.509 457.3 431.506 457.386 431.483 457.468C431.46 457.55 431.416 457.625 431.357 457.685C431.298 457.746 431.224 457.791 431.143 457.817C431.062 457.842 430.976 457.847 430.892 457.83C429.025 457.944 426.888 457.957 425.621 456.58" fill="black"/>
<path opacity="0.1" d="M746.609 667.001C816.197 667.001 872.609 654.913 872.609 640.001C872.609 625.09 816.197 613.001 746.609 613.001C677.021 613.001 620.609 625.09 620.609 640.001C620.609 654.913 677.021 667.001 746.609 667.001Z" fill="black"/>
<path d="M809.609 399.001L800.609 408.001L809.609 417.001L818.609 399.001H809.609Z" fill="#A0616A"/>
<path d="M811.634 320.961C814.16 321.994 815.361 324.82 816.313 327.378L827.988 358.749L830.26 364.856C831.375 367.85 832.49 370.847 833.432 373.9C834.029 375.831 834.555 377.782 835.011 379.753C835.485 381.439 835.666 383.194 835.549 384.942C835.234 386.864 834.532 388.703 833.486 390.348C829.424 397.422 823.64 403.355 816.67 407.594C816.268 405 815.223 402.549 813.628 400.464C812.034 398.378 809.942 396.726 807.544 395.659L813.581 392.338C814.858 391.739 816.007 390.897 816.964 389.861C817.549 389.052 817.964 388.133 818.186 387.16C818.408 386.187 818.432 385.18 818.256 384.197C817.893 382.237 817.292 380.329 816.464 378.516C814.438 373.46 812.681 368.302 811.198 363.062C810.321 359.962 809.516 356.776 807.778 354.064C806.202 351.603 803.919 349.636 802.487 347.088C800.304 343.206 800.36 338.427 801.324 334.078C802.137 330.407 803.502 326.875 804.65 323.301C805.552 320.493 808.93 319.854 811.634 320.961Z" fill="#D0CDE1"/>
<path d="M755.973 237.144C751.331 238.712 747.125 242.379 746.174 247.186C745.734 249.414 746.004 251.73 745.633 253.971C744.773 259.168 740.694 263.137 736.931 266.823C733.169 270.51 729.283 274.794 729.008 280.054C728.708 285.814 732.885 291.211 732.162 296.934C731.323 303.582 724.3 307.89 722.564 314.363C721.405 318.685 722.826 323.341 725.162 327.157C729.616 334.429 737.228 339.366 745.334 342.013C753.44 344.66 762.073 345.216 770.6 345.306C780.983 345.414 792.255 344.523 800.056 337.671C804.512 333.722 807.31 328.234 807.89 322.308C808.631 314.371 805.318 306.17 807.603 298.532C809.041 293.726 812.648 289.336 812.11 284.348C811.583 279.471 807.324 276.014 804.402 272.074C801.673 268.395 800.018 264.051 798.395 259.768L792.843 245.113C791.752 242.232 790.553 239.203 788.121 237.312C783.568 233.772 776.246 234.468 770.922 235.198C765.982 235.875 760.723 235.54 755.973 237.144Z" fill="#2F2E41"/>
<path d="M760.267 285.44C760.267 285.44 760.811 301.742 759.18 303.372C757.55 305.003 765.701 315.871 765.701 315.871L780.374 315.328L787.981 309.35L781.46 300.655C781.46 300.655 778.743 286.527 780.917 283.266C783.091 280.006 760.267 285.44 760.267 285.44Z" fill="#A0616A"/>
<path opacity="0.1" d="M760.267 285.44C760.267 285.44 760.811 301.742 759.18 303.372C757.55 305.003 765.701 315.871 765.701 315.871L780.374 315.328L787.981 309.35L781.46 300.655C781.46 300.655 778.743 286.527 780.917 283.266C783.091 280.006 760.267 285.44 760.267 285.44Z" fill="black"/>
<path d="M726.305 411.24L735.543 431.89L742.608 423.195L728.479 404.719L726.305 411.24Z" fill="#A0616A"/>
<path d="M701.579 618.009L697.775 639.203L691.254 648.441L695.058 650.614L701.579 649.527L709.187 646.81L712.447 634.312L718.425 618.009H701.579Z" fill="#A0616A"/>
<path d="M771.135 604.967L768.961 635.399L774.395 639.746L783.09 632.138V609.858L771.135 604.967Z" fill="#A0616A"/>
<path d="M769.235 291.689C780.039 291.689 788.798 282.93 788.798 272.126C788.798 261.322 780.039 252.563 769.235 252.563C758.43 252.563 749.672 261.322 749.672 272.126C749.672 282.93 758.43 291.689 769.235 291.689Z" fill="#A0616A"/>
<path d="M784.33 298.438C783.743 298.156 783.103 298.004 782.453 297.991C781.802 297.979 781.157 298.106 780.56 298.366C779.373 298.891 778.221 299.492 777.111 300.164C774.256 301.649 771.019 302.238 767.823 301.853C767.448 301.824 767.08 301.73 766.738 301.573C766.375 301.348 766.041 301.078 765.743 300.771C764.585 299.829 763.106 299.375 761.619 299.503C760.132 299.631 758.752 300.332 757.772 301.458C757.197 302.174 756.804 303.028 756.177 303.699C754.553 305.435 751.873 305.506 749.496 305.501C744.567 305.364 739.639 305.816 734.817 306.847C729.973 307.892 725.512 310.256 721.927 313.677C720.948 314.597 720.169 315.709 719.637 316.942C718.981 318.633 719.067 320.532 718.478 322.247C717.822 324.157 716.368 325.724 715.779 327.656C715.336 329.111 715.398 330.731 714.656 332.059C717.832 334.808 720.522 338.474 723.698 341.222C725.801 343.042 728.002 345.011 728.793 347.677C729.148 349.321 729.306 351.002 729.263 352.683C729.656 360.721 734.015 368.013 738.89 374.416C740.227 376.315 741.826 378.015 743.641 379.464C746.105 381.141 748.903 382.265 751.843 382.757C757.395 383.893 763.109 383.887 768.775 383.831C774.631 383.772 780.59 383.648 786.156 381.828C788.989 381.038 791.538 379.455 793.503 377.266C795.793 374.454 796.686 370.387 799.809 368.544C800.566 368.198 801.282 367.77 801.946 367.269C802.582 366.578 803.032 365.738 803.255 364.826C804.347 361.413 804.949 357.862 805.043 354.279C804.963 352.129 805.108 349.977 805.478 347.858C806.018 345.99 806.805 344.203 807.818 342.544L814.292 330.804C814.818 329.85 814.681 328.446 814.729 327.357C814.681 325.788 814.199 324.262 813.337 322.95C809.138 315.529 802.543 309.756 794.632 306.576C794.008 306.365 793.415 306.074 792.865 305.711C792.218 305.167 791.671 304.514 791.248 303.781C789.53 301.193 787.432 298.277 784.33 298.438Z" fill="#D0CDE1"/>
<path d="M703.653 362.374C702.376 365.478 701.439 368.71 700.857 372.015C700.232 376.581 700.968 381.23 702.973 385.38C706.462 392.56 713.33 397.43 718.177 403.773C722.68 409.667 725.362 416.731 729.262 423.04C728.582 421.434 729.408 419.575 730.521 418.232C731.634 416.889 733.057 415.775 733.873 414.234C734.428 413.04 734.778 411.761 734.906 410.45C735.488 406.538 735.802 402.287 733.808 398.872C732.306 396.301 729.713 394.593 727.659 392.437C725.606 390.243 724.097 387.598 723.253 384.714C722.41 381.83 722.256 378.788 722.803 375.834C723.199 373.8 723.925 371.848 724.47 369.849C725.144 367.162 725.654 364.437 725.997 361.688L728.445 344.881C729.095 340.41 729.646 335.463 727.114 331.722C726.62 330.938 725.937 330.292 725.128 329.843C724.458 329.536 723.745 329.335 723.014 329.247C720.351 328.812 716.744 327.646 715.443 330.499C713.874 333.944 712.781 337.698 711.467 341.25L703.653 362.374Z" fill="#D0CDE1"/>
<path d="M796.917 371.571C796.917 371.571 764.613 377.82 757.005 377.82H743.42C743.42 377.82 738.529 386.515 738.529 395.209C738.529 403.904 706.468 525.629 706.468 525.629C706.468 525.629 676.036 625.617 709.728 626.161C743.42 626.704 764.613 628.334 765.156 616.923C765.7 605.511 768.96 458.245 768.96 458.245L774.033 533.969C775.396 552.715 773.94 571.56 769.714 589.874C767.281 600.142 767.658 611.398 779.829 613.662C803.196 618.009 832.54 614.205 832.54 606.054C832.54 597.903 817.324 416.946 817.324 416.946C817.324 416.946 809.717 390.319 805.369 388.145C801.022 385.971 796.917 371.571 796.917 371.571Z" fill="#2F2E41"/>
<path d="M695.601 647.354L707.556 643.006L715.707 622.357L724.402 621.27C724.402 621.27 719.511 631.595 716.794 633.225C714.077 634.855 709.73 648.441 709.73 648.441C709.73 648.441 711.903 653.875 701.579 656.048C691.254 658.222 683.646 659.852 683.646 659.852C683.646 659.852 682.559 657.679 687.45 652.244C692.34 646.81 698.051 637.662 698.051 637.662L695.601 647.354Z" fill="#2F2E41"/>
<path d="M768.963 622.357L766.789 638.659C766.789 638.659 772.767 647.354 774.397 647.354C776.027 647.354 784.722 639.746 784.722 639.746C784.722 639.746 784.178 631.595 784.722 629.421C785.265 627.247 786.352 616.922 784.722 616.379C783.092 615.836 783.091 628.49 783.091 628.49L776.027 635.942L769.216 631.858L768.963 622.357Z" fill="#2F2E41"/>
<path d="M770.865 272.126C782.57 272.126 792.058 267.017 792.058 260.714C792.058 254.412 782.57 249.303 770.865 249.303C759.16 249.303 749.672 254.412 749.672 260.714C749.672 267.017 759.16 272.126 770.865 272.126Z" fill="#2F2E41"/>
<path opacity="0.2" d="M113.03 616.944C98.6539 617.06 79.626 614.705 75.7957 612.371C72.8787 610.595 71.7164 604.219 71.3275 601.277C71.0581 601.289 70.9023 601.294 70.9023 601.294C70.9023 601.294 71.7089 611.564 75.5392 613.897C79.3694 616.23 98.3974 618.586 112.774 618.47C116.924 618.436 118.357 616.96 118.278 614.773C117.702 616.094 116.119 616.919 113.03 616.944Z" fill="black"/>
</g>
<defs>
<clipPath id="clip0_222_9770">
<rect width="1036.61" height="758.001" fill="white"/>
</clipPath>
</defs>
</svg>
