<svg width="895" height="449" viewBox="0 0 895 449" fill="none" xmlns="http://www.w3.org/2000/svg">
<g clip-path="url(#clip0_222_9863)">
<path d="M294.493 448.282C267.51 448.282 240.567 447.799 213.664 446.833C175.224 445.452 135.475 444.025 98.5289 423.534C72.6838 409.201 49.794 386.205 32.3347 357.03C20.6652 337.256 12.1086 315.803 6.96545 293.426C-2.62848 252.684 -2.3017 210.235 7.91831 169.646C11.4998 155.73 16.4371 142.199 22.6594 129.246C49.6024 73.4527 98.7443 36 157.485 26.4922C157.97 26.4292 158.461 26.4188 158.948 26.4609C159.212 26.4751 159.476 26.4902 159.744 26.479L160.09 26.3691C160.976 26.0612 161.886 25.8277 162.811 25.6709C253.405 12.1841 349.176 39.4727 439.763 104.584C509.805 154.936 602.63 182.049 723.544 187.474L725.261 187.563C758.92 189.497 791.479 203.374 819.421 227.696C847.001 251.702 867.708 283.73 879.305 320.32C880.731 324.781 882.038 329.425 883.189 334.121C884.262 338.486 884.186 343.054 882.969 347.38C881.753 351.707 879.438 355.645 876.248 358.811V358.82L875.947 359.13C875.223 359.851 874.46 360.542 873.68 361.186L872.763 361.941C865.036 368.307 858.933 373.335 851.628 377.24C846.757 379.827 841.575 381.783 836.21 383.061C806.744 390.245 776.822 396.905 747.274 402.858C689.889 414.429 630.992 423.974 572.22 431.227C480.08 442.588 387.33 448.284 294.493 448.282ZM158.261 28.437C158.081 28.4353 157.901 28.4476 157.722 28.4736C99.5301 37.8926 50.8534 74.9775 24.1776 130.219C18.0167 143.043 13.1282 156.44 9.58235 170.219C-0.544539 210.448 -0.867255 252.52 8.64134 292.899C13.7341 315.063 22.2078 336.31 33.7647 355.896C51.0531 384.784 73.7088 407.55 99.2829 421.731C135.897 442.039 175.459 443.46 213.719 444.833C333.382 449.109 453.195 443.894 572.034 429.238C630.769 421.989 689.627 412.451 746.974 400.888C776.503 394.939 806.404 388.284 835.85 381.105C841.086 379.859 846.143 377.95 850.897 375.426C858.054 371.6 864.099 366.619 871.752 360.314L872.669 359.56C873.339 359.006 873.997 358.414 874.627 357.799L874.808 357.609C881.097 351.271 883.543 342.907 881.518 334.665V334.664C880.378 330.018 879.085 325.424 877.674 321.009C853.984 246.263 792.7 193.439 725.178 189.562L723.47 189.472C668.239 186.993 619.907 180.128 575.719 168.481C522.969 154.579 476.918 133.651 438.843 106.281C348.601 41.4185 253.23 14.2314 163.032 27.6543C162.189 27.7996 161.36 28.0146 160.553 28.2969L159.93 28.4712C159.576 28.487 159.222 28.4828 158.869 28.4585C158.66 28.4478 158.459 28.437 158.261 28.437Z" fill="#212438"/>
<path d="M279.326 146.056C276.828 143.659 274.273 130.294 271.084 128.937C273.468 134.206 271.737 135.601 271.724 141.383C271.754 144.666 271.371 147.94 270.583 151.128H216.559V108.966C216.558 105.178 217.305 101.426 218.754 97.9264C220.204 94.4264 222.329 91.2462 225.008 88.5674C227.686 85.8886 230.867 83.7637 234.367 82.3141C237.867 80.8644 241.618 80.1183 245.406 80.1184C246.852 80.1466 248.289 80.3569 249.682 80.7444C254.326 81.9981 258.558 84.4508 261.954 87.8565C265.351 91.2623 267.792 95.5012 269.033 100.148C273.151 115.202 279.701 140.26 279.326 146.056Z" fill="#2F2E41"/>
<path d="M219.731 197.923L219.758 165.06L200.44 166.786L207.258 187.513L204.067 239.609C202.519 239.956 201.106 240.746 200 241.883C198.894 243.019 198.142 244.453 197.837 246.009C197.531 247.566 197.685 249.177 198.28 250.648C198.874 252.118 199.884 253.384 201.185 254.29C202.487 255.196 204.024 255.705 205.609 255.753C207.194 255.801 208.759 255.386 210.113 254.56C211.467 253.734 212.551 252.532 213.234 251.101C213.916 249.669 214.167 248.07 213.957 246.498L219.731 197.923Z" fill="#FFB6B6"/>
<path d="M257.744 432.76L265.548 432.759L269.261 402.657H257.742L257.744 432.76Z" fill="#FFB6B6"/>
<path d="M255.102 428.91L267.44 428.174V433.459L279.169 441.56C279.748 441.96 280.184 442.535 280.414 443.2C280.644 443.866 280.654 444.587 280.445 445.259C280.235 445.932 279.816 446.519 279.249 446.936C278.682 447.354 277.997 447.579 277.293 447.579H262.605L260.073 442.35L259.085 447.579H253.547L255.102 428.91Z" fill="#2F2E41"/>
<path d="M212.618 432.76L220.423 432.759L224.135 402.657H212.617L212.618 432.76Z" fill="#FFB6B6"/>
<path d="M209.977 428.91L222.315 428.174V433.459L234.044 441.56C234.623 441.96 235.059 442.535 235.289 443.2C235.519 443.866 235.529 444.587 235.32 445.259C235.11 445.932 234.691 446.519 234.124 446.936C233.557 447.354 232.872 447.579 232.168 447.579H217.48L214.948 442.35L213.96 447.579H208.422L209.977 428.91Z" fill="#2F2E41"/>
<path d="M250.794 129.571L234.627 129.888L223.215 141.935L214.065 143.277C209.927 143.884 206.122 145.893 203.286 148.968C200.451 152.044 198.757 155.999 198.488 160.174L200.073 168.88H209.583L215.085 201.183C212.946 206.634 212.8 210.937 217.192 212.627L230.823 238.305L271.083 220.235C273.124 216.725 273.779 213.199 271.692 209.771L274.57 160.321H284.247C284.247 151.072 281.119 143.275 271.928 142.246C268.277 141.851 264.61 141.641 260.938 141.618L250.794 129.571Z" fill="#E6E6E6"/>
<path d="M271.084 220.235C271.084 220.235 231.775 227.209 217.193 212.627C217.193 212.627 215.712 215.14 213.481 219.309C212.84 220.507 211.601 221.319 210.853 222.771C210.173 224.091 208.423 225.713 207.683 227.21C207.087 228.414 208.043 229.987 207.423 231.288C199.955 246.952 191.23 269.047 193.1 283.637C194.306 293.045 196.798 314.938 199.422 338.453C199.627 340.29 197.966 342.65 198.172 344.502C198.367 346.248 200.428 347.485 200.622 349.236C200.751 350.398 199.312 351.583 199.44 352.744C199.582 354.017 201.291 355.266 201.431 356.534C205.025 389.002 208.317 419.315 208.317 419.315H226.703L230.172 350.084L227.337 324.847L233.994 273.809L243.187 322.311L244.37 349.608L254.085 420.583H271.084V351.875L272.352 348.306L271.084 343.728L272.352 338.796L271.084 333.424V220.235Z" fill="#2F2E41"/>
<path d="M255.76 120.196C253.256 123.523 249.693 125.897 245.659 126.929C241.624 127.96 237.359 127.587 233.565 125.871C229.771 124.154 226.675 121.197 224.786 117.486C222.898 113.775 222.329 109.531 223.175 105.454C224.02 101.376 226.229 97.7084 229.437 95.054C232.645 92.3996 236.662 90.917 240.826 90.8504C244.989 90.7837 249.051 92.137 252.343 94.6874C255.635 97.2378 257.96 100.833 258.935 104.881C258.988 105.101 259.032 105.319 259.076 105.546C259.591 108.084 259.561 110.702 258.99 113.227C258.418 115.752 257.318 118.127 255.76 120.196Z" fill="#FFB6B6"/>
<path d="M251.937 109.739C251.549 107.788 250.565 106.005 249.122 104.636C249.265 106.505 249.005 108.384 248.362 110.145C243.542 110.572 238.7 109.613 234.407 107.381C231.174 105.187 227.059 105.377 222.266 107.381C222.265 105.05 222.724 102.741 223.616 100.587C224.508 98.4331 225.816 96.476 227.465 94.8275C229.113 93.1789 231.07 91.8713 233.224 90.9793C235.378 90.0872 237.687 89.6282 240.018 89.6285H243.188C247.896 89.6294 252.411 91.5 255.74 94.829C259.069 98.1581 260.94 102.673 260.94 107.381C258.015 108.43 255.002 109.22 251.937 109.739Z" fill="#2F2E41"/>
<path d="M113.25 336C141.417 336 164.25 313.167 164.25 285C164.25 256.833 141.417 234 113.25 234C85.0835 234 62.25 256.833 62.25 285C62.25 313.167 85.0835 336 113.25 336Z" fill="#212438"/>
<path d="M438.25 102C466.417 102 489.25 79.1665 489.25 51C489.25 22.8335 466.417 0 438.25 0C410.083 0 387.25 22.8335 387.25 51C387.25 79.1665 410.083 102 438.25 102Z" fill="#212438"/>
<path d="M843.25 344C871.417 344 894.25 321.167 894.25 293C894.25 264.833 871.417 242 843.25 242C815.083 242 792.25 264.833 792.25 293C792.25 321.167 815.083 344 843.25 344Z" fill="#212438"/>
<path d="M530.248 56.5618V172.208C530.249 174.61 529.301 176.915 527.611 178.623C525.922 180.33 523.627 181.302 521.225 181.327C521.192 181.331 521.158 181.332 521.125 181.331H507.665C496.896 181.331 486.567 177.053 478.952 169.438C471.337 161.823 467.059 151.494 467.059 140.725V56.5617C467.059 54.1421 468.02 51.8215 469.731 50.1105C471.442 48.3996 473.762 47.4384 476.182 47.4384H481.636C479.109 54.809 513.401 57.9121 515.284 47.4384H521.125C523.545 47.4384 525.865 48.3996 527.576 50.1106C529.287 51.8215 530.248 54.1421 530.248 56.5618Z" fill="#6D2C32"/>
<path d="M490.305 38.7907C490.305 38.4737 490.431 38.1699 490.655 37.9457C490.879 37.7216 491.183 37.5955 491.5 37.5951H499.631C499.947 37.596 500.251 37.7224 500.474 37.9465C500.697 38.1706 500.823 38.4742 500.823 38.7907C500.823 39.1073 500.697 39.4108 500.474 39.635C500.251 39.8591 499.947 39.9855 499.631 39.9864H491.5C491.183 39.986 490.879 39.86 490.655 39.6358C490.431 39.4117 490.305 39.1077 490.305 38.7907Z" fill="#3F3D56"/>
<path d="M523.917 196H472.501C468.512 195.995 464.688 194.409 461.867 191.588C459.046 188.768 457.46 184.943 457.455 180.954V100.113C457.173 99.91 456.943 99.6429 456.784 99.3335C456.626 99.0242 456.544 98.6815 456.544 98.334V90.2036C456.544 89.8561 456.626 89.5135 456.784 89.2042C456.943 88.8949 457.173 88.6279 457.455 88.4253V86.2431C457.173 86.0405 456.943 85.7734 456.784 85.4642C456.626 85.1549 456.544 84.8123 456.544 84.4648V76.334C456.544 75.9864 456.626 75.6438 456.784 75.3346C456.943 75.0253 457.173 74.7583 457.455 74.5556V70.6118C457.106 70.4246 456.815 70.1461 456.613 69.8062C456.41 69.4663 456.304 69.0778 456.305 68.6821V60.5517C456.304 60.156 456.41 59.7673 456.613 59.4274C456.815 59.0874 457.106 58.8089 457.455 58.6215V47.8149C457.46 43.8258 459.046 40.0014 461.867 37.1808C464.688 34.3601 468.512 32.7735 472.501 32.769H523.917C527.906 32.7735 531.731 34.3602 534.552 37.1808C537.372 40.0015 538.959 43.8259 538.963 47.8149V71.3711C539.234 71.5406 539.458 71.7761 539.613 72.0557C539.768 72.3352 539.849 72.6496 539.849 72.9692V88.4721C539.849 88.7918 539.768 89.1062 539.613 89.3858C539.458 89.6655 539.234 89.9011 538.963 90.0707V180.954C538.959 184.943 537.372 188.767 534.552 191.588C531.731 194.409 527.906 195.995 523.917 196ZM472.501 34.769C469.043 34.7729 465.727 36.1486 463.281 38.5944C460.835 41.0401 459.459 44.3561 459.455 47.8149V60.3228L458.493 60.3599C458.443 60.3616 458.396 60.3825 458.361 60.4182C458.326 60.4539 458.306 60.5017 458.305 60.5518V68.682C458.306 68.732 458.326 68.7797 458.361 68.8154C458.396 68.8511 458.443 68.872 458.493 68.874L459.455 68.9106V75.9599L458.694 76.1474C458.652 76.1575 458.615 76.1814 458.587 76.2151C458.56 76.2488 458.545 76.2906 458.544 76.3339V84.4648C458.545 84.5081 458.56 84.5499 458.587 84.5836C458.615 84.6174 458.652 84.6411 458.694 84.6513L459.455 84.8388V89.8295L458.694 90.017C458.652 90.0272 458.615 90.051 458.587 90.0847C458.56 90.1185 458.545 90.1602 458.544 90.2036V98.3339C458.545 98.3773 458.56 98.4192 458.587 98.453C458.614 98.4868 458.652 98.5107 458.694 98.5209L459.455 98.7084V180.954C459.459 184.413 460.835 187.729 463.281 190.175C465.727 192.62 469.043 193.996 472.501 194H523.917C527.376 193.996 530.692 192.62 533.138 190.174C535.584 187.729 536.959 184.413 536.963 180.954V88.3583H537.849V73.0835H536.963V47.8149C536.959 44.3561 535.584 41.0401 533.138 38.5944C530.692 36.1487 527.376 34.773 523.917 34.769L472.501 34.769Z" fill="#3F3D56"/>
<path d="M504.176 39.9864C504.836 39.9864 505.372 39.4511 505.372 38.7907C505.372 38.1304 504.836 37.5951 504.176 37.5951C503.516 37.5951 502.98 38.1304 502.98 38.7907C502.98 39.4511 503.516 39.9864 504.176 39.9864Z" fill="#3F3D56"/>
<path d="M244.082 270.403H110.295C108.395 270.398 106.574 269.641 105.231 268.298C103.887 266.954 103.13 265.134 103.125 263.234V198.045C103.13 196.145 103.887 194.324 105.23 192.981C106.573 191.637 108.394 190.88 110.294 190.875H244.081C245.981 190.88 247.802 191.637 249.145 192.98C250.489 194.323 251.246 196.144 251.251 198.044V263.233C251.246 265.133 250.489 266.954 249.146 268.297C247.803 269.641 245.982 270.398 244.082 270.403Z" fill="white"/>
<path d="M244.082 270.403H110.295C108.395 270.398 106.574 269.641 105.231 268.298C103.887 266.954 103.13 265.134 103.125 263.234V198.045C103.13 196.145 103.887 194.324 105.23 192.981C106.573 191.637 108.394 190.88 110.294 190.875H244.081C245.981 190.88 247.802 191.637 249.145 192.98C250.489 194.323 251.246 196.144 251.251 198.044V263.233C251.246 265.133 250.489 266.954 249.146 268.297C247.803 269.641 245.982 270.398 244.082 270.403ZM110.295 192.875C108.925 192.879 107.612 193.425 106.643 194.394C105.675 195.363 105.129 196.676 105.125 198.046V263.233C105.129 264.603 105.675 265.916 106.644 266.885C107.613 267.853 108.926 268.399 110.296 268.403H244.08C245.45 268.399 246.763 267.853 247.732 266.884C248.701 265.915 249.247 264.602 249.251 263.232V198.045C249.247 196.675 248.701 195.362 247.732 194.393C246.763 193.425 245.45 192.879 244.08 192.875L110.295 192.875Z" fill="#3F3D56"/>
<path d="M184.359 260.769C157.973 260.769 130.46 260.517 120.195 260.353C118.844 260.325 117.558 259.771 116.611 258.808C115.663 257.844 115.13 256.549 115.125 255.198V201.236C115.126 200.753 115.318 200.289 115.659 199.946C116.001 199.604 116.464 199.411 116.948 199.409H237.424C237.907 199.41 238.371 199.602 238.714 199.943C239.056 200.285 239.249 200.748 239.251 201.232V237.844C239.228 243.82 236.864 249.55 232.666 253.803C228.468 258.057 222.77 260.495 216.794 260.596C207.227 260.72 195.898 260.769 184.359 260.769Z" fill="#6D2C32"/>
<path d="M230.269 234.48H121.41C120.498 234.477 119.61 234.194 118.865 233.669C118.12 233.144 117.554 232.402 117.246 231.544L104.924 196.978C104.687 196.311 104.613 195.597 104.709 194.896C104.804 194.195 105.067 193.527 105.474 192.948C105.881 192.37 106.422 191.897 107.05 191.57C107.677 191.244 108.374 191.073 109.082 191.071L245.154 190.882C245.801 190.881 246.44 191.022 247.027 191.295C247.613 191.569 248.132 191.967 248.548 192.463C248.964 192.958 249.265 193.539 249.432 194.164C249.599 194.789 249.627 195.443 249.514 196.08L249.619 196.124L249.228 197.036L249.224 197.045L234.329 231.8C233.99 232.596 233.424 233.274 232.702 233.751C231.98 234.227 231.134 234.481 230.269 234.48ZM245.161 192.882L109.086 193.071C108.698 193.072 108.316 193.166 107.972 193.345C107.629 193.523 107.333 193.782 107.109 194.099C106.886 194.416 106.742 194.782 106.69 195.166C106.638 195.55 106.678 195.941 106.808 196.307L119.129 230.872C119.298 231.341 119.608 231.748 120.016 232.036C120.425 232.323 120.912 232.478 121.411 232.48H230.269C230.742 232.48 231.205 232.341 231.6 232.081C231.996 231.82 232.305 231.449 232.491 231.013L247.386 196.257C247.544 195.889 247.608 195.487 247.572 195.088C247.537 194.689 247.403 194.305 247.182 193.97C246.962 193.636 246.661 193.361 246.309 193.171C245.956 192.981 245.561 192.882 245.161 192.882Z" fill="#3F3D56"/>
<path d="M176.985 242.004C181.693 242.004 185.509 238.188 185.509 233.48C185.509 228.773 181.693 224.956 176.985 224.956C172.277 224.956 168.461 228.773 168.461 233.48C168.461 238.188 172.277 242.004 176.985 242.004Z" fill="white"/>
<path d="M498.985 168.004C503.693 168.004 507.509 164.188 507.509 159.48C507.509 154.773 503.693 150.956 498.985 150.956C494.277 150.956 490.461 154.773 490.461 159.48C490.461 164.188 494.277 168.004 498.985 168.004Z" fill="white"/>
<path d="M821.379 283.12L798.609 260.64C797.501 259.537 796.186 258.664 794.739 258.07C793.292 257.476 791.743 257.174 790.179 257.18H790.099C788.524 257.185 786.965 257.502 785.513 258.113C784.06 258.724 782.744 259.617 781.639 260.74C776.548 265.893 773.652 272.818 773.561 280.061C773.469 287.304 776.189 294.301 781.149 299.58C781.389 299.84 781.639 300.09 781.889 300.34C783.274 301.717 784.803 302.94 786.449 303.99C790.951 306.898 796.2 308.437 801.559 308.42H801.729C805.408 308.407 809.047 307.666 812.437 306.238C815.827 304.81 818.901 302.723 821.479 300.1C823.714 297.833 824.958 294.772 824.939 291.589C824.92 288.406 823.64 285.361 821.379 283.12ZM820.059 298.69C815.832 302.949 810.265 305.62 804.298 306.254C798.331 306.888 792.327 305.446 787.299 302.17C785.861 301.218 784.518 300.13 783.289 298.92C778.383 294.074 775.602 287.478 775.559 280.583C775.516 273.687 778.214 267.057 783.059 262.15C783.98 261.211 785.079 260.466 786.291 259.956C787.503 259.446 788.804 259.182 790.119 259.18H790.179C791.481 259.175 792.771 259.427 793.976 259.922C795.18 260.416 796.276 261.142 797.199 262.06L819.969 284.55C821.854 286.414 822.922 288.95 822.939 291.601C822.956 294.252 821.92 296.802 820.059 298.69Z" fill="#3F3D56"/>
<path d="M746.67 209.34L723.9 186.85C721.659 184.626 718.627 183.382 715.47 183.39H715.4C713.822 183.396 712.261 183.715 710.808 184.328C709.354 184.94 708.036 185.835 706.93 186.96C702.721 191.235 699.992 196.745 699.142 202.684C698.293 208.622 699.368 214.677 702.21 219.96L702.22 219.97C703.392 222.131 704.848 224.125 706.55 225.9C706.74 226.12 706.96 226.34 707.18 226.56C712.409 231.75 719.482 234.656 726.85 234.64H727.03C730.709 234.625 734.348 233.88 737.738 232.451C741.128 231.021 744.201 228.934 746.78 226.31C747.887 225.188 748.762 223.86 749.356 222.4C749.95 220.94 750.25 219.378 750.24 217.802C750.23 216.226 749.909 214.668 749.297 213.216C748.684 211.764 747.791 210.447 746.67 209.34ZM745.35 224.91C742.956 227.345 740.104 229.282 736.958 230.608C733.812 231.935 730.434 232.626 727.02 232.64H726.85C721.722 232.638 716.71 231.12 712.442 228.276C708.175 225.433 704.844 221.392 702.868 216.66C700.892 211.928 700.359 206.718 701.336 201.684C702.313 196.651 704.757 192.018 708.36 188.37C710.224 186.485 712.76 185.417 715.411 185.4C718.062 185.383 720.612 186.419 722.5 188.28L745.27 210.76C747.154 212.627 748.22 215.166 748.235 217.818C748.25 220.471 747.212 223.021 745.35 224.91Z" fill="#3F3D56"/>
<path d="M822.834 290.188L797.731 265.394C796.085 263.772 793.863 262.869 791.552 262.883C789.241 262.898 787.03 263.828 785.404 265.471C783.37 267.525 781.761 269.961 780.669 272.638C779.577 275.315 779.023 278.181 779.039 281.072C779.056 283.963 779.642 286.822 780.764 289.487C781.886 292.151 783.523 294.568 785.58 296.6C787.637 298.632 790.074 300.238 792.752 301.327C795.43 302.416 798.297 302.966 801.188 302.947C804.079 302.927 806.938 302.338 809.601 301.213C812.264 300.088 814.68 298.449 816.709 296.39L822.834 290.188Z" fill="#6D2C32"/>
<path d="M748.127 216.404L723.024 191.61C721.378 189.988 719.156 189.085 716.845 189.099C714.533 189.114 712.322 190.044 710.697 191.686C708.663 193.741 707.054 196.177 705.962 198.854C704.87 201.531 704.316 204.397 704.332 207.288C704.349 210.179 704.935 213.038 706.057 215.703C707.179 218.367 708.816 220.784 710.873 222.816C712.93 224.848 715.367 226.454 718.045 227.543C720.723 228.632 723.59 229.182 726.481 229.163C729.372 229.143 732.231 228.554 734.894 227.429C737.557 226.304 739.972 224.665 742.002 222.605L748.127 216.404Z" fill="#6D2C32"/>
<path d="M795.251 305.63L794.651 307.21C791.831 306.14 789.097 305.067 786.451 303.99C739.571 284.86 717.191 262.47 702.221 219.97L702.211 219.96C701.501 217.96 700.811 215.913 700.141 213.82L701.721 213.31C702.249 215.323 703.021 217.264 704.021 219.09C704.841 221.42 705.684 223.69 706.551 225.9C720.621 261.77 741.371 282.27 781.151 299.58C783.151 300.45 785.201 301.313 787.301 302.17C789.739 303.759 792.426 304.928 795.251 305.63Z" fill="#3F3D56"/>
<path d="M723.48 232.82L722.074 234.243L774.012 285.541L775.418 284.117L723.48 232.82Z" fill="#3F3D56"/>
<path d="M283.764 190.315L283.791 157.452L264.473 159.178L271.291 179.905L246.543 217.419C244.996 217.766 243.583 218.556 242.477 219.692C241.37 220.829 240.619 222.263 240.313 223.819C240.008 225.375 240.162 226.987 240.756 228.457C241.351 229.927 242.36 231.193 243.662 232.099C244.963 233.006 246.5 233.514 248.085 233.562C249.671 233.61 251.236 233.196 252.59 232.37C253.944 231.544 255.028 230.342 255.71 228.91C256.393 227.478 256.644 225.879 256.433 224.307L283.764 190.315Z" fill="#FFB6B6"/>
</g>
<defs>
<clipPath id="clip0_222_9863">
<rect width="894.249" height="448.282" fill="white"/>
</clipPath>
</defs>
</svg>
