<svg width="114" height="29" viewBox="0 0 114 29" fill="none" xmlns="http://www.w3.org/2000/svg"><path d="M62.6563 23V16.136L63.5443 18.488L56.1523 6.2H60.2803L65.9443 15.632H63.5683L69.2563 6.2H73.0723L65.6803 18.488L66.5443 16.136V23H62.6563ZM79.0393 23.192C77.9673 23.192 77.0073 22.984 76.1593 22.568C75.3273 22.152 74.6793 21.52 74.2153 20.672C73.7513 19.808 73.5193 18.712 73.5193 17.384V10.088H77.2633V16.832C77.2633 17.904 77.4873 18.696 77.9353 19.208C78.3993 19.704 79.0473 19.952 79.8793 19.952C80.4553 19.952 80.9673 19.832 81.4153 19.592C81.8633 19.336 82.2153 18.952 82.4713 18.44C82.7273 17.912 82.8553 17.256 82.8553 16.472V10.088H86.5993V23H83.0473V19.448L83.6953 20.48C83.2633 21.376 82.6233 22.056 81.7753 22.52C80.9433 22.968 80.0313 23.192 79.0393 23.192ZM106.604 9.896C107.628 9.896 108.532 10.104 109.316 10.52C110.116 10.92 110.74 11.544 111.188 12.392C111.652 13.224 111.884 14.296 111.884 15.608V23H108.14V16.184C108.14 15.144 107.924 14.376 107.492 13.88C107.06 13.384 106.452 13.136 105.668 13.136C105.124 13.136 104.636 13.264 104.204 13.52C103.772 13.76 103.436 14.128 103.196 14.624C102.956 15.12 102.836 15.752 102.836 16.52V23H99.0918V16.184C99.0918 15.144 98.8758 14.376 98.4438 13.88C98.0278 13.384 97.4278 13.136 96.6438 13.136C96.0998 13.136 95.6118 13.264 95.1798 13.52C94.7478 13.76 94.4118 14.128 94.1718 14.624C93.9318 15.12 93.8118 15.752 93.8118 16.52V23H90.0678V10.088H93.6438V13.616L92.9718 12.584C93.4198 11.704 94.0518 11.04 94.8678 10.592C95.6998 10.128 96.6438 9.896 97.6998 9.896C98.8838 9.896 99.9158 10.2 100.796 10.808C101.692 11.4 102.284 12.312 102.572 13.544L101.252 13.184C101.684 12.176 102.372 11.376 103.316 10.784C104.276 10.192 105.372 9.896 106.604 9.896Z" fill="#11092D"></path><path d="M0 9C0 4.02944 4.02944 0 9 0H54V20C54 24.9706 49.9706 29 45 29H0V9Z" fill="#11092D"></path><path d="M11.599 23.12C10.399 23.12 9.31903 22.848 8.35903 22.304C7.41503 21.76 6.67103 21.008 6.12703 20.048C5.58303 19.072 5.31103 17.952 5.31103 16.688C5.31103 15.408 5.58303 14.288 6.12703 13.328C6.67103 12.368 7.41503 11.624 8.35903 11.096C9.31903 10.552 10.399 10.28 11.599 10.28C12.703 10.28 13.687 10.528 14.551 11.024C15.431 11.52 16.127 12.248 16.639 13.208C17.167 14.152 17.431 15.312 17.431 16.688C17.431 18.048 17.175 19.208 16.663 20.168C16.151 21.128 15.455 21.864 14.575 22.376C13.711 22.872 12.719 23.12 11.599 23.12ZM11.719 21.608C12.615 21.608 13.415 21.408 14.119 21.008C14.839 20.592 15.399 20.016 15.799 19.28C16.215 18.528 16.423 17.664 16.423 16.688C16.423 15.696 16.215 14.832 15.799 14.096C15.399 13.36 14.839 12.792 14.119 12.392C13.415 11.976 12.615 11.768 11.719 11.768C10.839 11.768 10.047 11.976 9.34303 12.392C8.63903 12.792 8.07903 13.36 7.66303 14.096C7.24703 14.832 7.03903 15.696 7.03903 16.688C7.03903 17.664 7.24703 18.528 7.66303 19.28C8.07903 20.016 8.63903 20.592 9.34303 21.008C10.047 21.408 10.839 21.608 11.719 21.608ZM16.471 23V19.208L16.639 16.664L16.399 14.12V5.192H18.103V23H16.471ZM22.8487 23V10.4H24.5527V23H22.8487ZM23.7127 7.616C23.3607 7.616 23.0647 7.496 22.8247 7.256C22.5847 7.016 22.4647 6.728 22.4647 6.392C22.4647 6.056 22.5847 5.776 22.8247 5.552C23.0647 5.312 23.3607 5.192 23.7127 5.192C24.0647 5.192 24.3607 5.304 24.6007 5.528C24.8407 5.752 24.9607 6.032 24.9607 6.368C24.9607 6.72 24.8407 7.016 24.6007 7.256C24.3767 7.496 24.0807 7.616 23.7127 7.616ZM34.67 27.776C33.518 27.776 32.414 27.608 31.358 27.272C30.302 26.936 29.446 26.456 28.79 25.832L29.654 24.536C30.246 25.064 30.974 25.48 31.838 25.784C32.718 26.104 33.646 26.264 34.622 26.264C36.222 26.264 37.398 25.888 38.15 25.136C38.902 24.4 39.278 23.248 39.278 21.68V18.536L39.518 16.376L39.35 14.216V10.4H40.982V21.464C40.982 23.64 40.446 25.232 39.374 26.24C38.318 27.264 36.75 27.776 34.67 27.776ZM34.358 22.52C33.158 22.52 32.078 22.264 31.118 21.752C30.158 21.224 29.398 20.496 28.838 19.568C28.294 18.64 28.022 17.576 28.022 16.376C28.022 15.176 28.294 14.12 28.838 13.208C29.398 12.28 30.158 11.56 31.118 11.048C32.078 10.536 33.158 10.28 34.358 10.28C35.478 10.28 36.486 10.512 37.382 10.976C38.278 11.44 38.99 12.128 39.518 13.04C40.046 13.952 40.31 15.064 40.31 16.376C40.31 17.688 40.046 18.8 39.518 19.712C38.99 20.624 38.278 21.32 37.382 21.8C36.486 22.28 35.478 22.52 34.358 22.52ZM34.526 21.008C35.454 21.008 36.278 20.816 36.998 20.432C37.718 20.032 38.286 19.488 38.702 18.8C39.118 18.096 39.326 17.288 39.326 16.376C39.326 15.464 39.118 14.664 38.702 13.976C38.286 13.288 37.718 12.752 36.998 12.368C36.278 11.968 35.454 11.768 34.526 11.768C33.614 11.768 32.79 11.968 32.054 12.368C31.334 12.752 30.766 13.288 30.35 13.976C29.95 14.664 29.75 15.464 29.75 16.376C29.75 17.288 29.95 18.096 30.35 18.8C30.766 19.488 31.334 20.032 32.054 20.432C32.79 20.816 33.614 21.008 34.526 21.008ZM45.7237 23V10.4H47.4277V23H45.7237ZM46.5877 7.616C46.2357 7.616 45.9397 7.496 45.6997 7.256C45.4597 7.016 45.3397 6.728 45.3397 6.392C45.3397 6.056 45.4597 5.776 45.6997 5.552C45.9397 5.312 46.2357 5.192 46.5877 5.192C46.9397 5.192 47.2357 5.304 47.4757 5.528C47.7157 5.752 47.8357 6.032 47.8357 6.368C47.8357 6.72 47.7157 7.016 47.4757 7.256C47.2517 7.496 46.9557 7.616 46.5877 7.616Z" fill="white"></path></svg>