<svg version="1.1" id="Layer_1" xmlns="http://www.w3.org/2000/svg" xmlns:xlink="http://www.w3.org/1999/xlink" x="0px" y="0px" viewBox="0 0 96.3 87.6" style="enable-background:new 0 0 96.3 87.6;" xml:space="preserve"> <style type="text/css"> .st0{fill:#9FCC4E;} </style> <g> <g> <path class="st0" d="M53.9,39.7c0.7-1.7,1.2-3.6,1.5-5.5l-0.7,1c0,0.1-0.1,0.2-0.1,0.3c-1.2,2.6-2.8,5-4.7,6.9
 c-3.3,3.3-7.6,5.5-12.1,6.3c-4.1,0.7-8.5,0.3-12.7-1.4c-2.9-1.2-5.4-2.9-7.4-5c-0.1-0.1-0.1-0.1-0.2-0.2l3.4,8.2
 c1,0.6,2.1,1.2,3.2,1.7c2.7,1.1,5.7,1.8,8.8,1.8c4.5,0,8.7-1.3,12.3-3.6C49,47.6,52.1,44,53.9,39.7z"></path> <path class="st0" d="M32.7,30.9c0.7,1.7,1.7,3.4,2.8,4.9l-0.2-1.2c0,0,0,0,0,0c0,0,0,0,0,0c0,0,0,0,0,0c0,0,0,0,0,0c0,0,0,0,0,0
 c0,0,0,0,0,0c0,0,0,0,0,0c-1.1-2.7-1.6-5.6-1.6-8.4c0-4.7,1.5-9.2,4.1-13c2.4-3.5,5.8-6.3,10-8c2.9-1.2,5.8-1.8,8.8-1.7
 c0.1,0,0.2,0,0.2,0L48.6,0c-1.2,0.3-2.3,0.6-3.5,1.1c-2.7,1.1-5.2,2.8-7.4,5c-3.2,3.2-5.2,7.1-6.1,11.2
 C30.5,21.8,30.9,26.6,32.7,30.9z"></path> <path class="st0" d="M53.9,22.1c-1.7-0.7-3.6-1.2-5.5-1.5l1,0.7c0,0,0.1,0,0.1,0c0,0,0.1,0,0.1,0.1c2.7,1.2,5,2.8,7,4.8
 c3.3,3.3,5.5,7.6,6.3,12.1c0.7,4.1,0.3,8.5-1.4,12.7c-1.2,2.9-2.9,5.4-5,7.4c-0.1,0.1-0.1,0.1-0.2,0.2l8.2-3.4
 c0.6-1,1.2-2.1,1.7-3.2c1.1-2.7,1.7-5.7,1.8-8.8c0-4.5-1.3-8.7-3.6-12.3C61.8,27,58.2,23.9,53.9,22.1z"></path> <path class="st0" d="M36.3,39.7c1.7,0.7,3.6,1.2,5.5,1.5l-1-0.7c0,0,0,0,0,0c0,0,0,0-0.1,0c-0.1,0-0.1-0.1-0.2-0.1
 c-2.7-1.2-5-2.8-6.9-4.7c-3.3-3.3-5.5-7.6-6.3-12.1c-0.7-4.1-0.3-8.5,1.4-12.7c1.2-2.9,2.9-5.4,5-7.4c0.1-0.1,0.1-0.1,0.2-0.2
 l-8.2,3.4c-0.6,1-1.2,2.1-1.7,3.2c-1.1,2.7-1.7,5.7-1.7,8.8c0,4.5,1.3,8.7,3.6,12.3C28.4,34.8,32,37.9,36.3,39.7z"></path> <path class="st0" d="M76,34.4c-0.3-1.2-0.6-2.3-1.1-3.5c-1.1-2.7-2.8-5.2-5-7.4c-3.2-3.2-7.1-5.2-11.2-6.1
 c-4.5-1-9.3-0.6-13.6,1.2c-1.7,0.7-3.4,1.7-4.9,2.8l1.2-0.2c0,0,0,0,0,0c0,0,0,0,0,0c0,0,0,0,0,0c0,0,0,0,0.1,0c0,0,0,0,0,0
 c0,0,0,0,0,0c0,0,0,0,0,0c0,0,0,0,0,0c0,0,0,0,0,0c0,0,0,0,0,0c0,0,0,0,0,0c0,0,0,0,0,0l0,0c0,0,0,0,0,0c2.7-1.1,5.5-1.5,8.3-1.5
 c4.7,0,9.2,1.5,13,4.1c3.5,2.4,6.3,5.8,8,10c1.2,2.9,1.7,5.8,1.7,8.8c0,0.1,0,0.2,0,0.3L76,34.4z"></path> <path class="st0" d="M31.5,44.5c4.5,1,9.3,0.6,13.6-1.2c1.7-0.7,3.4-1.7,4.9-2.8l-1.2,0.2c0,0,0,0,0,0c0,0,0,0,0,0c0,0,0,0,0,0
 c0,0,0,0,0,0c0,0,0,0,0,0c0,0,0,0,0,0c0,0,0,0,0,0c0,0,0,0,0,0c0,0,0,0,0,0c0,0,0,0,0,0c0,0,0,0,0,0c0,0,0,0-0.1,0
 c-2.7,1-5.5,1.5-8.2,1.5c-4.7,0-9.2-1.5-13-4.1c-3.5-2.4-6.3-5.8-8-10c-1.2-2.9-1.7-5.9-1.7-8.8c0-0.1,0-0.2,0-0.2l-3.4,8.2
 c0.3,1.2,0.6,2.3,1.1,3.5c1.1,2.7,2.8,5.2,5,7.4C23.5,41.5,27.4,43.6,31.5,44.5z"></path> <path class="st0" d="M36.3,22.1c-0.7,1.7-1.2,3.6-1.5,5.5l0.7-1c0-0.1,0.1-0.1,0.1-0.2c0,0,0,0,0,0c0,0,0,0,0,0c0,0,0,0,0,0
 c0,0,0,0,0,0c1.2-2.7,2.8-5,4.8-7c3.3-3.3,7.6-5.5,12.1-6.3c4.1-0.7,8.5-0.3,12.7,1.4c2.9,1.2,5.4,2.9,7.4,5
 c0.1,0.1,0.1,0.1,0.2,0.2l-3.4-8.2c-1-0.6-2.1-1.2-3.2-1.7c-2.7-1.1-5.7-1.8-8.8-1.7c-4.5,0-8.7,1.3-12.3,3.6
 C41.2,14.2,38.1,17.8,36.3,22.1z"></path> <path class="st0" d="M57.5,30.9c-0.7-1.7-1.7-3.4-2.8-4.9l0.2,1.2c0,0,0,0,0,0l0,0c0,0,0,0,0,0c0,0,0,0,0,0c0,0,0,0,0,0
 c0,0,0,0,0,0c0,0,0,0,0,0c0,0,0,0,0,0c0,0,0,0,0,0c0,0,0,0,0,0c0,0,0,0,0,0c1.1,2.7,1.6,5.6,1.6,8.3c0,4.7-1.5,9.2-4.1,13
 c-2.4,3.5-5.8,6.3-10,8c-2.9,1.2-5.8,1.8-8.8,1.7c-0.1,0-0.2,0-0.2,0l8.2,3.4c1.2-0.3,2.3-0.6,3.5-1.1c2.7-1.1,5.2-2.8,7.4-5
 c3.2-3.2,5.2-7.1,6.1-11.2C59.7,40,59.3,35.2,57.5,30.9z"></path> </g> <g> <g> <path d="M94.4,77.3c-1.1,0-2-0.9-2-2c0-1.1,0.9-2,2-2c1.1,0,2,0.9,2,2C96.3,76.4,95.5,77.3,94.4,77.3z M94.4,73.5
 c-1,0-1.8,0.8-1.8,1.8c0,1,0.8,1.8,1.8,1.8c1,0,1.8-0.8,1.8-1.8C96.2,74.3,95.4,73.5,94.4,73.5z"></path> <g> <path d="M93.4,76.4v-2.3h1c0.2,0,0.4,0,0.5,0.1c0.1,0,0.2,0.1,0.3,0.2c0.1,0.1,0.1,0.2,0.1,0.3c0,0.2-0.1,0.3-0.2,0.4
 c-0.1,0.1-0.3,0.2-0.5,0.2c0.1,0,0.1,0.1,0.2,0.1c0.1,0.1,0.2,0.2,0.2,0.3l0.4,0.6h-0.4L94.8,76c-0.1-0.1-0.2-0.2-0.2-0.3
 c-0.1-0.1-0.1-0.1-0.2-0.2c0,0-0.1,0-0.1-0.1c0,0-0.1,0-0.2,0h-0.3v1H93.4z M93.7,75.2h0.6c0.1,0,0.2,0,0.3,0
 c0.1,0,0.1-0.1,0.2-0.1c0-0.1,0.1-0.1,0.1-0.2c0-0.1,0-0.2-0.1-0.3c-0.1-0.1-0.2-0.1-0.4-0.1h-0.7V75.2z"></path> </g> </g> <path d="M0,68.7h6.8c1.2,0,2.3,0.2,3.3,0.6c1,0.4,1.8,1,2.5,1.7c0.7,0.8,1.2,1.7,1.6,2.9c0.4,1.2,0.6,2.5,0.6,4.1
 c0,1.5-0.2,2.9-0.6,4.1c-0.4,1.2-0.9,2.1-1.6,2.9c-0.7,0.8-1.5,1.4-2.5,1.7c-1,0.4-2.1,0.6-3.3,0.6H0V68.7z M6.8,84.2
 c1.3,0,2.4-0.4,3.1-1.2c0.8-0.8,1.2-1.9,1.2-4.7v-0.7c0-2.9-0.4-4-1.2-4.7c-0.8-0.8-1.8-1.2-3.1-1.2H3.5v12.4H6.8z"></path> <path d="M19.6,71.4c-0.7,0-1.2-0.2-1.5-0.5c-0.3-0.3-0.5-0.7-0.5-1.2v-0.5c0-0.5,0.2-0.9,0.5-1.2c0.3-0.3,0.8-0.5,1.5-0.5
 c0.7,0,1.2,0.2,1.5,0.5c0.3,0.3,0.5,0.7,0.5,1.2v0.5c0,0.5-0.2,0.9-0.5,1.2C20.8,71.2,20.3,71.4,19.6,71.4z M17.9,73.4h3.4v13.9
 h-3.4V73.4z"></path> <path d="M29.8,87.6c-1.3,0-2.5-0.2-3.4-0.7c-0.9-0.5-1.7-1.1-2.4-1.9l2.1-2c0.5,0.6,1.1,1,1.7,1.4c0.6,0.3,1.3,0.5,2.1,0.5
 c0.8,0,1.4-0.1,1.8-0.4c0.4-0.3,0.5-0.7,0.5-1.2c0-0.4-0.1-0.7-0.4-1c-0.3-0.2-0.7-0.4-1.3-0.5l-1.4-0.2c-1.5-0.2-2.7-0.6-3.5-1.3
 c-0.8-0.7-1.2-1.6-1.2-2.9c0-0.7,0.1-1.3,0.4-1.8c0.2-0.5,0.6-1,1.1-1.4c0.5-0.4,1-0.7,1.7-0.9c0.6-0.2,1.4-0.3,2.2-0.3
 c0.7,0,1.3,0,1.8,0.1c0.5,0.1,1,0.2,1.4,0.4c0.4,0.2,0.8,0.4,1.2,0.7c0.4,0.3,0.7,0.6,1,0.9l-2,2c-0.4-0.4-0.9-0.8-1.5-1.1
 c-0.6-0.3-1.2-0.4-1.9-0.4c-0.7,0-1.3,0.1-1.6,0.4c-0.3,0.3-0.5,0.6-0.5,1c0,0.5,0.1,0.8,0.4,1.1c0.3,0.2,0.7,0.4,1.4,0.5L31,79
 c3,0.4,4.5,1.8,4.5,4.1c0,0.7-0.1,1.3-0.4,1.9c-0.3,0.6-0.7,1-1.2,1.4c-0.5,0.4-1.1,0.7-1.8,0.9C31.4,87.5,30.7,87.6,29.8,87.6z"></path> <path d="M42.7,87.3c-1.2,0-2.1-0.3-2.7-0.9c-0.6-0.6-0.9-1.5-0.9-2.6v-7.6H37v-2.7h1.1c0.5,0,0.9-0.1,1.1-0.4
 c0.2-0.2,0.3-0.6,0.3-1.1v-2.4h3.1v3.8h2.9v2.7h-2.9v8.4h2.6v2.7H42.7z"></path> <path d="M50,71.4c-0.7,0-1.2-0.2-1.5-0.5c-0.3-0.3-0.5-0.7-0.5-1.2v-0.5c0-0.5,0.2-0.9,0.5-1.2c0.3-0.3,0.8-0.5,1.5-0.5
 c0.7,0,1.2,0.2,1.5,0.5c0.3,0.3,0.5,0.7,0.5,1.2v0.5c0,0.5-0.2,0.9-0.5,1.2C51.2,71.2,50.7,71.4,50,71.4z M48.3,73.4h3.4v13.9
 h-3.4V73.4z"></path> <path d="M59.1,87.3c-1.2,0-2-0.3-2.6-0.9c-0.6-0.6-0.8-1.4-0.8-2.5V67.6h3.4v17h1.8v2.7H59.1z"></path> <path d="M65.8,87.6c-0.7,0-1.3-0.2-1.6-0.5c-0.3-0.4-0.5-0.8-0.5-1.4v-0.5c0-0.6,0.2-1,0.5-1.4c0.3-0.4,0.9-0.6,1.6-0.6
 c0.7,0,1.3,0.2,1.6,0.6c0.3,0.4,0.5,0.8,0.5,1.4v0.5c0,0.6-0.2,1-0.5,1.4C67.1,87.4,66.5,87.6,65.8,87.6z"></path> <path d="M82.1,87.3c-0.7,0-1.3-0.2-1.8-0.7c-0.4-0.4-0.7-1-0.8-1.7h-0.2c-0.2,0.9-0.7,1.6-1.4,2c-0.7,0.5-1.6,0.7-2.6,0.7
 c-1.4,0-2.5-0.4-3.3-1.1c-0.8-0.7-1.1-1.7-1.1-3c0-1.4,0.5-2.5,1.5-3.2c1-0.7,2.5-1.1,4.4-1.1h2.4v-1c0-0.8-0.2-1.4-0.6-1.8
 c-0.4-0.4-1.1-0.6-2-0.6c-0.8,0-1.4,0.2-1.9,0.5c-0.5,0.3-0.9,0.8-1.2,1.2l-2-1.8c0.5-0.8,1.2-1.5,2.1-1.9c0.9-0.5,2-0.7,3.4-0.7
 c1.9,0,3.3,0.4,4.3,1.3c1,0.9,1.5,2.1,1.5,3.7v6.5H84v2.7H82.1z M76.5,85.2c0.8,0,1.4-0.2,1.9-0.5c0.5-0.3,0.8-0.8,0.8-1.5v-1.8
 H77c-1.8,0-2.7,0.6-2.7,1.7v0.5c0,0.6,0.2,1,0.5,1.3C75.3,85,75.8,85.2,76.5,85.2z"></path> <rect x="87" y="73.4" width="3.4" height="13.9"></rect> </g> </g> <circle class="st0" cx="88.7" cy="69.6" r="2"></circle> </svg>