<svg width="2323" height="428" viewBox="0 0 2323 428" fill="none" xmlns="http://www.w3.org/2000/svg">
<path d="M295.053 341.34H67.7323C55.6704 341.34 45.4642 330.993 45.4642 318.766V57.2774C45.4642 45.0495 35.2579 34.7028 23.196 34.7028H22.2682C10.2062 34.7028 0 45.0495 0 57.2774V319.706C0 357.33 29.6909 387.43 66.8045 387.43H295.053C307.115 387.43 317.321 377.083 317.321 364.855V363.915C317.321 351.687 307.115 341.34 295.053 341.34Z" fill="black"/>
<path d="M389.678 95.8355H385.966C374.832 95.8355 364.626 105.242 364.626 117.469V366.73C364.626 378.017 373.904 388.364 385.966 388.364H389.678C400.812 388.364 411.018 378.958 411.018 366.73V116.529C410.09 105.242 400.812 95.8355 389.678 95.8355Z" fill="black"/>
<path d="M764.539 116.529L762.683 115.588C749.693 102.42 732.992 95.8356 715.363 95.8356H535.362C516.806 95.8356 499.177 103.36 486.187 116.529C473.197 129.697 465.774 147.569 465.774 165.44V363.908C465.774 376.136 475.981 386.483 488.043 386.483C500.104 386.483 510.311 376.136 510.311 363.908V174.846C510.311 166.381 514.022 156.975 520.517 151.331C527.012 145.688 534.435 141.925 542.785 141.925H706.085C714.436 141.925 721.858 144.747 727.425 150.391C732.992 156.034 736.704 164.5 736.704 172.965V364.849C736.704 377.077 746.91 387.423 758.972 387.423H760.828C772.889 387.423 783.096 377.077 783.096 364.849V165.44C784.024 146.628 776.601 129.697 764.539 116.529Z" fill="black"/>
<path d="M1080 264.21C1098.56 264.21 1116.19 256.685 1129.18 243.516C1142.17 230.348 1149.59 212.476 1149.59 193.664V165.446C1149.59 146.634 1142.17 128.763 1129.18 115.594C1116.19 102.426 1098.56 94.9007 1080 94.9007H900.927C882.37 94.9007 864.741 102.426 851.751 115.594C838.762 128.763 832.267 146.634 832.267 164.506V315.002C832.267 333.815 839.689 351.686 852.679 365.795C865.669 378.964 883.298 386.488 902.783 386.488H1127.32C1139.38 386.488 1149.59 376.142 1149.59 363.914C1149.59 351.686 1139.38 341.339 1127.32 341.339H899.071C887.009 341.339 876.803 330.993 876.803 318.765V264.21H1080V264.21ZM876.803 163.565C876.803 151.337 887.009 140.99 899.071 140.99H1081.86C1093.92 140.99 1104.12 151.337 1104.12 163.565V195.546C1104.12 207.773 1093.92 218.12 1081.86 218.12H876.803V163.565Z" fill="black"/>
<g filter="url(#filter0_d_19_37)">
<path d="M1480.89 96.3C1468.83 96.3 1458.63 106.647 1458.63 118.875V309.817C1458.63 318.283 1454.92 326.748 1449.35 332.392C1443.78 338.036 1436.36 340.857 1428.01 340.857H1262.85C1254.5 340.857 1247.08 338.036 1241.51 332.392C1235.02 326.748 1232.23 318.283 1232.23 309.817V118.875C1232.23 106.647 1222.03 96.3 1209.97 96.3C1196.98 96.3 1187.7 106.647 1187.7 118.875V317.342C1187.7 336.154 1195.12 354.026 1208.11 367.194L1209.04 368.135C1222.03 381.303 1239.66 388.828 1258.21 388.828H1437.29C1455.84 388.828 1472.54 381.303 1485.53 368.135C1498.52 354.966 1505.95 337.095 1505.95 318.283V118.875C1503.16 106.647 1492.96 96.3 1480.89 96.3Z" fill="black"/>
</g>
<path d="M1865.89 114.653C1859.4 109.01 1852.9 104.307 1845.48 100.544C1837.13 96.782 1827.85 94.9008 1818.57 94.9008H1585.68C1577.33 94.9008 1570.84 101.485 1570.84 109.95V362.973C1570.84 374.261 1578.26 384.607 1589.39 386.488C1604.24 389.31 1616.3 378.023 1616.3 363.914V294.309H1818.57C1837.13 294.309 1854.76 286.784 1867.75 273.616C1880.74 260.447 1888.16 242.576 1888.16 223.764V168.268C1888.16 148.515 1880.74 128.763 1865.89 114.653ZM1842.7 223.764C1842.7 237.873 1831.56 249.16 1817.64 249.16H1616.3V140.99H1817.64C1831.56 140.99 1842.7 152.278 1842.7 166.387V223.764Z" fill="black"/>
<path d="M2222.25 251.595L2305.07 174.652C2317.17 163.392 2322.75 149.317 2322.75 133.366C2322.75 117.414 2316.24 103.339 2305.07 92.0792C2281.81 69.5593 2242.72 69.5593 2219.46 92.0792L2187.82 121.167C2167.35 139.934 2156.18 165.269 2156.18 191.542C2156.18 212.185 2163.63 232.828 2175.72 249.718L2134.78 288.189L2093.84 249.718C2106.86 232.828 2113.38 212.185 2113.38 191.542C2113.38 165.269 2102.21 139.934 2081.74 121.167L2050.1 92.0792C2026.84 69.5593 1987.75 69.5593 1964.49 92.0792C1952.39 103.339 1946.81 117.414 1946.81 133.366C1946.81 149.317 1953.32 163.392 1964.49 174.652L2047.31 251.595L1964.49 328.537C1952.39 339.797 1946.81 353.872 1946.81 369.824C1946.81 385.775 1953.32 399.85 1964.49 411.11C1975.65 421.432 1991.47 428 2007.29 428C2023.11 428 2038.93 422.37 2050.1 411.11L2133.85 333.229L2217.6 411.11C2228.77 421.432 2244.59 428 2260.41 428C2276.23 428 2292.04 422.37 2303.21 411.11C2315.31 399.85 2320.89 385.775 2320.89 369.824C2320.89 353.872 2314.38 339.797 2303.21 328.537L2222.25 251.595ZM2188.75 192.48C2188.75 174.652 2196.2 157.762 2210.16 144.625L2241.79 115.537C2247.38 110.846 2254.82 108.031 2262.27 108.031C2269.71 108.031 2277.16 110.846 2282.74 115.537C2288.32 120.229 2291.11 126.797 2291.11 133.366C2291.11 139.934 2288.32 146.502 2282.74 151.194L2199.92 228.137C2192.47 217.815 2188.75 205.617 2188.75 192.48ZM2290.18 369.824C2290.18 376.392 2287.39 382.96 2281.81 387.652C2270.64 397.974 2252.03 397.974 2240.86 387.652L2158.04 310.709L2198.06 274.115L2281.81 351.996C2287.39 356.687 2290.18 362.317 2290.18 369.824ZM1980.31 133.366C1980.31 126.797 1983.1 120.229 1988.68 115.537C1994.27 110.846 2001.71 108.031 2009.15 108.031C2016.6 108.031 2024.04 110.846 2029.63 115.537L2061.27 144.625C2075.22 157.762 2082.67 174.652 2082.67 192.48C2082.67 205.617 2078.95 217.815 2071.5 228.137L1988.68 151.194C1983.1 146.502 1980.31 139.934 1980.31 133.366ZM2111.52 310.709L2028.7 387.652C2017.53 397.974 1998.92 397.974 1987.75 387.652C1982.17 382.96 1979.38 376.392 1979.38 369.824C1979.38 363.256 1982.17 356.687 1987.75 351.996L2071.5 274.115L2111.52 310.709Z" fill="#7B61FF"/>
<path d="M2134.78 127.243C2171.32 127.243 2201.29 98.756 2201.29 63.6216C2201.29 28.4873 2171.32 0 2134.78 0C2098.24 0 2068.27 28.4873 2068.27 63.6216C2068.27 98.756 2097.31 127.243 2134.78 127.243ZM2101.05 63.6216C2101.05 46.5292 2116.04 32.2856 2134.78 32.2856C2153.52 32.2856 2168.5 46.5292 2168.5 63.6216C2168.5 80.714 2153.52 94.9576 2134.78 94.9576C2116.04 94.9576 2101.05 80.714 2101.05 63.6216Z" fill="#7B61FF"/>
<defs>
<filter id="filter0_d_19_37" x="1183.7" y="96.3" width="326.249" height="300.528" filterUnits="userSpaceOnUse" color-interpolation-filters="sRGB">
<feFlood flood-opacity="0" result="BackgroundImageFix"/>
<feColorMatrix in="SourceAlpha" type="matrix" values="0 0 0 0 0 0 0 0 0 0 0 0 0 0 0 0 0 0 127 0" result="hardAlpha"/>
<feOffset dy="4"/>
<feGaussianBlur stdDeviation="2"/>
<feComposite in2="hardAlpha" operator="out"/>
<feColorMatrix type="matrix" values="0 0 0 0 0 0 0 0 0 0 0 0 0 0 0 0 0 0 0.25 0"/>
<feBlend mode="normal" in2="BackgroundImageFix" result="effect1_dropShadow_19_37"/>
<feBlend mode="normal" in="SourceGraphic" in2="effect1_dropShadow_19_37" result="shape"/>
</filter>
</defs>
</svg>
