  <svg viewBox="0 0 140 31" fill="none" xmlns="http://www.w3.org/2000/svg">
          <path
            d="M96.7212 18.5739H93.9932V22.4063C93.9932 22.6778 93.8844 22.9382 93.6909 23.1302C93.4973 23.3222 93.2348 23.4301 92.9611 23.4301H91.4347C91.1609 23.4301 90.8984 23.3222 90.7049 23.1302C90.5113 22.9382 90.4026 22.6778 90.4026 22.4063V8.2655C90.4026 7.99397 90.5113 7.73356 90.7049 7.54156C90.8984 7.34956 91.1609 7.2417 91.4347 7.2417H97.0704C100.964 7.2417 103.318 9.53097 103.318 12.8386V12.8847C103.318 16.6311 100.381 18.5739 96.7212 18.5739ZM99.6817 12.9051C99.6817 11.3095 98.5622 10.4539 96.7645 10.4539H94.5916C94.5126 10.4538 94.4344 10.4691 94.3614 10.499C94.2884 10.5289 94.2221 10.5728 94.1662 10.6282C94.1104 10.6835 94.066 10.7492 94.0358 10.8216C94.0056 10.894 93.99 10.9715 93.99 11.0499V14.804C93.99 14.9623 94.0534 15.1141 94.1662 15.226C94.279 15.3379 94.432 15.4008 94.5916 15.4008H96.8339C98.6292 15.4008 99.6786 14.3363 99.6786 12.9489L99.6817 12.9051Z"
            fill="#DE2025"
          />
          <path
            d="M92.9612 23.8242H91.4347C91.0558 23.8238 90.6924 23.6743 90.4244 23.4084C90.1565 23.1426 90.0057 22.7822 90.0053 22.4062V8.26545C90.0057 7.88943 90.1564 7.52892 90.4244 7.26296C90.6923 6.997 91.0557 6.8473 91.4347 6.84668H97.0705C101.107 6.84668 103.716 9.19852 103.716 12.8385V12.8847C103.716 16.5802 100.97 18.968 96.7212 18.968H94.3906V22.4094C94.3893 22.7848 94.2382 23.1444 93.9703 23.4096C93.7025 23.6747 93.3396 23.8238 92.9612 23.8242ZM91.4347 7.63428C91.2672 7.63551 91.1068 7.70237 90.9887 7.82029C90.8706 7.93821 90.8042 8.09764 90.804 8.26389V22.4047C90.8052 22.5702 90.8721 22.7287 90.9901 22.8457C91.1081 22.9628 91.2678 23.0291 91.4347 23.0304H92.9612C93.1281 23.0291 93.2878 22.9628 93.4058 22.8457C93.5238 22.7287 93.5907 22.5702 93.5919 22.4047V18.1789H96.7173C100.483 18.1789 102.917 16.1008 102.917 12.8847V12.8385C102.917 9.67796 100.62 7.63584 97.0666 7.63584L91.4347 7.63428ZM96.8371 15.7989H94.594C94.3293 15.7984 94.0755 15.6939 93.8884 15.5081C93.7013 15.3223 93.5961 15.0705 93.5958 14.8079V11.0537C93.5963 10.7912 93.7016 10.5396 93.8887 10.354C94.0758 10.1684 94.3294 10.064 94.594 10.0636H96.7677C98.8413 10.0636 100.079 11.1272 100.079 12.9089V12.9551C100.079 14.6296 98.7459 15.7989 96.8371 15.7989ZM94.594 10.8496C94.5401 10.8498 94.4885 10.8711 94.4504 10.9089C94.4123 10.9467 94.3908 10.9979 94.3906 11.0514V14.8056C94.3908 14.859 94.4123 14.9102 94.4504 14.948C94.4885 14.9858 94.5401 15.0071 94.594 15.0073H96.8371C98.3233 15.0073 99.2813 14.2002 99.2813 12.9504V12.905C99.2813 11.1155 97.7044 10.848 96.7654 10.848L94.594 10.8496Z"
            fill="#DE2025"
          />
          <path
            d="M115.362 23.0336L112.13 18.2501H110.212C109.973 18.2501 109.744 18.3443 109.575 18.5119C109.406 18.6796 109.311 18.907 109.311 19.1441V22.5354C109.311 22.7727 109.216 23.0002 109.047 23.168C108.878 23.3358 108.648 23.4301 108.409 23.4301H106.622C106.383 23.4301 106.154 23.3358 105.985 23.168C105.815 23.0002 105.72 22.7727 105.72 22.5354V8.13413C105.72 7.89683 105.815 7.66924 105.985 7.50145C106.154 7.33365 106.383 7.23938 106.622 7.23938H113.181C117.027 7.23938 119.335 9.251 119.335 12.5813V12.6274C119.335 14.8377 118.318 16.3535 116.749 17.2302C116.639 17.2906 116.543 17.3729 116.467 17.4721C116.392 17.5712 116.337 17.685 116.308 17.8061C116.279 17.9273 116.276 18.0531 116.298 18.1756C116.321 18.2981 116.369 18.4146 116.439 18.5176L118.86 22.0278C118.952 22.1622 119.006 22.3191 119.016 22.4817C119.025 22.6443 118.99 22.8063 118.913 22.9504C118.837 23.0944 118.722 23.215 118.581 23.2992C118.441 23.3833 118.28 23.4277 118.115 23.4278H116.11C115.962 23.4278 115.817 23.3919 115.686 23.3231C115.556 23.2544 115.445 23.155 115.362 23.0336ZM115.7 12.769C115.7 11.2423 114.627 10.4563 112.879 10.4563H110.114C110.008 10.4563 109.904 10.4768 109.807 10.5168C109.71 10.5568 109.621 10.6154 109.547 10.6893C109.473 10.7631 109.414 10.8508 109.373 10.9473C109.333 11.0438 109.312 11.1473 109.313 11.2517V14.3129C109.313 14.5237 109.397 14.7258 109.547 14.8748C109.697 15.0238 109.901 15.1075 110.114 15.1075H112.952C114.701 15.1075 115.703 14.1823 115.703 12.8183L115.7 12.769Z"
            fill="#DE2025"
          />
          <path
            d="M118.117 23.8242H116.111C115.898 23.8246 115.688 23.7725 115.499 23.6728C115.311 23.573 115.15 23.4287 115.032 23.2525L111.921 18.6442H110.212C110.079 18.6445 109.951 18.6972 109.856 18.7909C109.762 18.8845 109.709 19.0115 109.708 19.144V22.5353C109.708 22.8771 109.571 23.2048 109.328 23.4465C109.084 23.6882 108.754 23.824 108.409 23.8242H106.622C106.278 23.8238 105.948 23.6879 105.704 23.4462C105.461 23.2046 105.324 22.877 105.324 22.5353V8.13408C105.324 7.79222 105.461 7.46442 105.705 7.22262C105.948 6.98081 106.279 6.84477 106.623 6.84436H113.181C117.223 6.84436 119.734 9.04291 119.734 12.5812V12.6274C119.734 14.8439 118.769 16.5544 116.945 17.5735C116.882 17.6081 116.827 17.6553 116.784 17.7121C116.741 17.769 116.71 17.8342 116.694 17.9036C116.678 17.9703 116.677 18.0395 116.689 18.1069C116.702 18.1742 116.729 18.2382 116.768 18.2946L119.189 21.8056C119.322 21.9991 119.4 22.2253 119.414 22.4595C119.427 22.6938 119.376 22.9273 119.266 23.1348C119.156 23.3423 118.99 23.516 118.788 23.6371C118.585 23.7582 118.353 23.8221 118.116 23.8219L118.117 23.8242ZM110.212 17.8551H112.341L115.688 22.8137C115.734 22.882 115.796 22.9379 115.869 22.9766C115.942 23.0153 116.024 23.0357 116.107 23.0359H118.112C118.204 23.0357 118.294 23.0108 118.372 22.9638C118.451 22.9168 118.515 22.8494 118.558 22.769C118.6 22.6886 118.62 22.5982 118.615 22.5074C118.61 22.4166 118.58 22.3289 118.529 22.2537L116.107 18.7436C116.006 18.5965 115.937 18.4301 115.904 18.2551C115.871 18.0801 115.875 17.9002 115.916 17.7268C115.957 17.5515 116.034 17.3865 116.143 17.2422C116.251 17.0979 116.389 16.9774 116.546 16.8884C118.106 16.0171 118.931 14.542 118.931 12.6297V12.5836C118.931 9.48559 116.778 7.63587 113.175 7.63587H106.617C106.483 7.63608 106.355 7.6889 106.261 7.78276C106.166 7.87661 106.113 8.00381 106.113 8.13643V22.5353C106.113 22.6679 106.166 22.7951 106.261 22.889C106.355 22.9828 106.483 23.0357 106.617 23.0359H108.404C108.537 23.0357 108.665 22.9828 108.76 22.889C108.854 22.7951 108.907 22.6679 108.907 22.5353V19.144C108.908 18.9744 108.942 18.8065 109.007 18.6499C109.073 18.4933 109.169 18.3511 109.291 18.2314C109.412 18.1117 109.555 18.0168 109.714 17.9523C109.872 17.8877 110.041 17.8547 110.212 17.8551ZM112.947 15.4993H110.109C109.792 15.4975 109.489 15.3718 109.266 15.1497C109.042 14.9275 108.916 14.6268 108.914 14.3129V11.2548C108.915 10.9394 109.041 10.637 109.266 10.414C109.491 10.191 109.796 10.0656 110.114 10.0651H112.879C114.895 10.0651 116.098 11.0772 116.098 12.7721V12.8182C116.098 14.4458 114.864 15.4993 112.949 15.4993H112.947ZM110.109 10.8504C110.002 10.8506 109.899 10.893 109.823 10.9682C109.748 11.0434 109.705 11.1453 109.705 11.2516V14.3129C109.705 14.419 109.748 14.5207 109.824 14.5958C109.899 14.6708 110.002 14.7131 110.109 14.7133H112.947C114.421 14.7133 115.301 14.0047 115.301 12.8182V12.7721C115.301 11.1867 113.983 10.8535 112.878 10.8535L110.109 10.8504Z"
            fill="#DE2025"
          />
          <path
            d="M130.495 6.56982C125.396 6.56982 121.402 10.4202 121.402 15.3359V15.382C121.402 20.3532 125.291 24.1019 130.448 24.1019C135.548 24.1019 139.542 20.2515 139.542 15.3359V15.2897C139.542 10.3185 135.653 6.56982 130.495 6.56982ZM135.271 18.4636C135.276 18.6863 135.236 18.9077 135.153 19.1148C135.071 19.3219 134.947 19.5106 134.79 19.6698C134.633 19.829 134.446 19.9555 134.239 20.0419C134.032 20.1282 133.81 20.1727 133.585 20.1727C133.36 20.1727 133.138 20.1282 132.931 20.0419C132.724 19.9555 132.537 19.829 132.38 19.6698C132.223 19.5106 132.099 19.3219 132.017 19.1148C131.934 18.9077 131.894 18.6863 131.899 18.4636V16.4957L128.761 19.837C128.444 20.1741 128.005 20.3726 127.541 20.3889C127.077 20.4052 126.625 20.2379 126.285 19.9238C126.117 19.7683 125.981 19.5814 125.886 19.3738C125.79 19.1662 125.737 18.9419 125.729 18.7138C125.72 18.4858 125.758 18.2584 125.838 18.0446C125.919 17.8308 126.041 17.6348 126.198 17.4679L129.563 13.8842H127.283C127.058 13.8891 126.835 13.8494 126.626 13.7675C126.417 13.6856 126.227 13.5631 126.067 13.4074C125.906 13.2516 125.779 13.0655 125.692 12.8602C125.605 12.6549 125.56 12.4344 125.56 12.2117C125.56 11.9889 125.605 11.7684 125.692 11.5631C125.779 11.3578 125.906 11.1718 126.067 11.016C126.227 10.8602 126.417 10.7378 126.626 10.6559C126.835 10.574 127.058 10.5343 127.283 10.5391H133.585C134.032 10.5395 134.46 10.7158 134.776 11.0293C135.093 11.3428 135.27 11.7678 135.271 12.2113V18.4636Z"
            fill="#DE2025"
          />
          <path
            d="M67.7152 10.3177C67.6734 9.37916 67.3533 8.57514 66.7785 7.98385C65.8253 6.9976 64.3454 6.92017 63.9165 6.92017C62.9262 6.92017 61.906 7.35424 61.1388 7.90877C60.5216 7.4093 59.749 7.13735 58.9525 7.13916C57.1217 7.13916 55.6852 8.60486 55.6852 10.4773V20.562C55.676 21.4568 56.025 22.3186 56.6558 22.9584C57.2699 23.5549 58.0953 23.889 58.9549 23.889C59.8144 23.889 60.6398 23.5549 61.2539 22.9584C61.5665 22.6418 61.8131 22.2672 61.9797 21.856C62.1462 21.4448 62.2294 21.0051 62.2245 20.562V15.5415C62.2245 14.7523 62.3893 14.1509 62.6905 13.8732C62.7591 13.8107 62.9546 13.6237 63.4726 13.6535C64.9375 13.7317 66.0634 13.411 66.818 12.6719C67.109 12.3824 67.3384 12.0379 67.4925 11.6587C67.6467 11.2795 67.7224 10.8735 67.7152 10.4647V10.3177ZM67.03 10.4804C67.03 11.1468 66.7935 11.7443 66.3607 12.1737C65.7504 12.7587 64.8122 13.0231 63.5617 12.9456C63.0066 12.9159 62.5646 13.0557 62.2355 13.3649C61.7846 13.7888 61.5441 14.549 61.5441 15.5595V20.5713C61.5503 20.9212 61.486 21.2687 61.3551 21.5935C61.2242 21.9184 61.0292 22.2141 60.7817 22.4633C60.3052 22.925 59.6655 23.1835 58.9994 23.1835C58.3333 23.1835 57.6936 22.925 57.2171 22.4633C56.7236 21.9799 56.4586 21.3089 56.4586 20.5713V10.4992C56.4586 9.00922 57.5491 7.88296 59.0006 7.88296C59.4117 7.87704 59.8187 7.96578 60.1894 8.1422C60.5601 8.31862 60.8846 8.57792 61.1372 8.89972C61.7917 8.26542 62.9136 7.66475 63.9622 7.66475C64.3154 7.66475 65.5438 7.72497 66.3023 8.50944C66.7486 8.97871 67.0001 9.6224 67.03 10.3748V10.4804Z"
            fill="#DE2025"
          />
          <path
            d="M63.9631 8.14268C62.9791 8.14268 61.8343 8.79888 61.2935 9.43709L61.0837 9.6819L60.9055 9.40502C60.7055 9.08383 60.4249 8.81954 60.0912 8.63792C59.7575 8.4563 59.3821 8.36355 59.0015 8.36871C57.8275 8.36871 56.9365 9.28458 56.9365 10.4984V20.5769C56.9284 21.1566 57.1511 21.7162 57.5563 22.1341C57.9455 22.5012 58.462 22.7058 58.9991 22.7058C59.5362 22.7058 60.0527 22.5012 60.4419 22.1341C60.8455 21.7167 61.0667 21.1582 61.0577 20.58V15.5642C61.0577 14.4184 61.3455 13.5354 61.9029 13.0177C62.3318 12.6156 62.8971 12.4264 63.5902 12.4647C64.6845 12.5382 65.5274 12.3122 66.0217 11.8304C66.4853 11.3728 66.561 10.7949 66.546 10.3905C66.5247 9.94782 66.4136 9.32055 65.9476 8.84502C65.4564 8.3296 64.5978 8.14111 63.9631 8.14111"
            fill="#DE2025"
          />
          <path
            d="M22.1357 8.5963C20.953 7.41842 19.2626 6.80837 17.3838 6.87563C15.7872 6.93585 14.5178 7.44736 13.4495 8.45317C12.1493 7.20177 10.8232 6.90535 9.20292 6.87563C7.82236 6.84747 6.44338 7.23853 5.44995 7.89239C4.82919 7.35977 4.03704 7.06465 3.2163 7.06021C1.32405 7.06021 0.000258892 8.46334 0.000258892 10.4757V20.5636C-0.00526484 21.0065 0.0776522 21.4462 0.24423 21.8572C0.410809 22.2683 0.657753 22.6425 0.970827 22.9584C1.585 23.555 2.41035 23.8891 3.26992 23.8891C4.12948 23.8891 4.95483 23.555 5.56901 22.9584C5.88098 22.6421 6.12673 22.2676 6.29209 21.8565C6.45746 21.4455 6.53915 21.0061 6.53248 20.5636V14.0321C6.53248 13.4322 6.6058 13.0935 6.77926 12.9371C6.87969 12.8328 7.00048 12.7499 7.13427 12.6934C7.26806 12.6369 7.41205 12.6081 7.55745 12.6086C7.95561 12.6086 8.14878 12.7439 8.28676 12.8855C8.42473 13.027 8.56034 13.1584 8.56034 14.0352V20.5667C8.55425 21.0097 8.63691 21.4496 8.80352 21.8607C8.97013 22.2718 9.21738 22.646 9.53091 22.9615C10.1449 23.5582 10.9701 23.8924 11.8296 23.8924C12.6891 23.8924 13.5144 23.5582 14.1283 22.9615C14.4412 22.6455 14.6881 22.2712 14.8548 21.8603C15.0215 21.4493 15.1047 21.0097 15.0997 20.5667V14.0321C15.0997 13.4001 15.1446 13.1185 15.2983 12.9371C15.394 12.8231 15.5149 12.7325 15.6517 12.6726C15.7885 12.6126 15.9374 12.5848 16.0868 12.5914C16.2388 12.5913 16.3894 12.6212 16.5297 12.6795C16.6699 12.7378 16.797 12.8232 16.9036 12.9308C17.0613 13.0763 17.219 13.3305 17.219 14.0352V20.5667C17.2085 21.4601 17.5552 22.3212 18.1832 22.9615C18.7977 23.5582 19.6233 23.8923 20.4831 23.8923C21.3429 23.8923 22.1686 23.5582 22.783 22.9615C23.0973 22.6464 23.3452 22.2724 23.5123 21.8612C23.6793 21.45 23.7622 21.01 23.7559 20.5667V12.9316C23.7559 11.1288 23.2103 9.67328 22.1333 8.5963M23.0795 20.5769C23.0851 20.9261 23.0209 21.2731 22.8907 21.5976C22.7606 21.9222 22.5669 22.218 22.321 22.468C21.843 22.9299 21.202 23.1883 20.5348 23.1883C19.8675 23.1883 19.2266 22.9299 18.7486 22.468C18.5038 22.2175 18.3114 21.9214 18.1823 21.5969C18.0532 21.2723 17.99 20.9257 17.9964 20.5769V14.0602C17.9964 13.2867 17.8229 12.7767 17.4595 12.4264C17.1139 12.0854 16.6475 11.8923 16.1601 11.8883C15.9011 11.8739 15.6423 11.921 15.4052 12.0256C15.1682 12.1302 14.9597 12.2893 14.7969 12.4897C14.4815 12.862 14.424 13.3281 14.424 14.054V20.5706C14.4301 20.9199 14.3662 21.2669 14.2362 21.5915C14.1061 21.9161 13.9124 22.2119 13.6663 22.4618C13.19 22.9275 12.5468 23.1866 11.8781 23.1821C11.5479 23.1849 11.2205 23.1227 10.9148 22.999C10.609 22.8754 10.3311 22.6928 10.097 22.4618C9.85017 22.2124 9.65595 21.9167 9.52571 21.592C9.39547 21.2673 9.33184 20.92 9.33853 20.5706V14.0602C9.33853 13.1616 9.21948 12.7595 8.8497 12.388C8.52171 12.0634 8.13222 11.9086 7.61185 11.9023C7.37201 11.9017 7.13445 11.9485 6.9131 12.0401C6.69174 12.1317 6.49104 12.2662 6.32275 12.4357C5.92223 12.8268 5.86152 13.4525 5.86152 14.0626V20.5792C5.86677 20.9284 5.80247 21.2753 5.67232 21.5998C5.54216 21.9243 5.3487 22.2202 5.10304 22.4704C4.62578 22.9322 3.98549 23.1906 3.3188 23.1906C2.65211 23.1906 2.01182 22.9322 1.53456 22.4704C1.28801 22.2204 1.09404 21.9242 0.963965 21.5991C0.833886 21.274 0.770287 20.9265 0.776871 20.5769V10.5008C0.776871 9.15943 1.5456 7.80088 3.26597 7.80088C4.2326 7.80088 4.99344 8.32568 5.44601 8.88647C6.2786 8.10434 7.77506 7.59753 9.23052 7.62099C10.9225 7.65306 12.1816 7.98624 13.4881 9.53172C14.5296 8.30378 15.7951 7.67887 17.4508 7.62099C19.1302 7.56468 20.625 8.09574 21.665 9.12736C22.5985 10.0604 23.0755 11.3455 23.0755 12.9488L23.0795 20.5769Z"
            fill="#DE2025"
          />
          <path
            d="M17.472 8.1067C15.8486 8.15832 14.677 8.76212 13.678 10.0542L13.4919 10.2966L13.2948 10.0542C12.0333 8.45865 10.8893 8.13016 9.22568 8.1067C7.79072 8.08323 6.26509 8.62681 5.60438 9.40737L5.38598 9.65608L5.21489 9.38078C4.87034 8.85206 4.16706 8.2905 3.26429 8.2905C1.78912 8.2905 1.2585 9.47463 1.2585 10.5V20.5769C1.24736 21.156 1.46857 21.7159 1.87349 22.1333C2.26286 22.5004 2.77953 22.7051 3.31672 22.7051C3.85392 22.7051 4.37059 22.5004 4.75996 22.1333C5.16286 21.7375 5.37495 21.1807 5.37495 20.5769V14.0602C5.37495 13.3766 5.45379 12.6047 5.98441 12.0854C6.41939 11.6587 7.00634 11.4193 7.61805 11.419C8.26063 11.4268 8.77469 11.6317 9.19493 12.0447C9.6609 12.5093 9.82174 13.0333 9.82174 14.061V20.5776C9.81059 21.1568 10.0318 21.7167 10.4367 22.1341C10.8252 22.5011 11.3411 22.7058 11.8776 22.7058C12.4141 22.7058 12.93 22.5011 13.3185 22.1341C13.5204 21.9281 13.6793 21.6846 13.7859 21.4175C13.8925 21.1503 13.9448 20.8649 13.9398 20.5776V14.0602C13.9398 13.3766 13.9768 12.7236 14.4168 12.1831C14.6299 11.9292 14.899 11.7271 15.2033 11.5926C15.5076 11.4581 15.8389 11.3947 16.1718 11.4073C16.781 11.4168 17.3634 11.6575 17.7992 12.0799C18.4031 12.6712 18.4772 13.447 18.4772 14.0618V20.5784C18.4716 20.8656 18.5235 21.1511 18.6299 21.4182C18.7363 21.6854 18.895 21.929 19.0969 22.1349C19.4854 22.5019 20.0013 22.7065 20.5378 22.7065C21.0743 22.7065 21.5902 22.5019 21.9787 22.1349C22.1798 21.9285 22.3378 21.6848 22.4438 21.4177C22.5497 21.1506 22.6015 20.8654 22.596 20.5784V12.9488C22.596 11.4784 22.1671 10.3092 21.3282 9.46916C20.3821 8.53061 19.0165 8.04647 17.472 8.1067Z"
            fill="#DE2025"
          />
          <path
            d="M54.3583 18.2704C54.2479 18.1179 53.8907 17.5876 53.4744 16.9768C52.8657 16.0703 52.1443 15.0215 51.6263 14.2902C51.9906 13.9374 52.3477 13.5769 52.3477 13.5769C53.3964 12.5601 54.1659 11.8202 54.1659 10.5634C54.1668 9.74927 53.8425 8.96799 53.2639 8.39063C52.9593 8.09269 52.5981 7.85759 52.2013 7.69892C51.8045 7.54024 51.38 7.46113 50.9522 7.46616C49.5251 7.46616 48.6468 8.34762 47.9451 9.06091L47.763 9.24784C47.763 9.24784 47.3412 9.67097 46.8397 10.1809V5.10806C46.8453 4.66253 46.762 4.22029 46.5948 3.80676C46.4276 3.39323 46.1796 3.01654 45.8652 2.69834C45.5637 2.40025 45.2052 2.16481 44.8109 2.0058C44.4165 1.8468 43.9941 1.76742 43.5685 1.77231C41.7401 1.77231 40.2949 3.2341 40.2949 5.10806V20.5386C40.2905 20.9831 40.3745 21.4241 40.5421 21.8364C40.7098 22.2487 40.9577 22.6241 41.2717 22.9412C41.8862 23.5355 42.7104 23.868 43.5685 23.868C44.4266 23.868 45.2508 23.5355 45.8652 22.9412C46.1794 22.6243 46.4272 22.2489 46.5945 21.8365C46.7617 21.4241 46.8451 20.983 46.8397 20.5386H46.8318L46.8397 20.4799C46.8397 20.4799 46.8578 19.2426 46.8618 18.8852L46.8815 18.8687C47.6486 20.0271 49.0103 22.0942 49.0103 22.0942C49.7837 23.2549 50.8734 23.8829 52.0852 23.8681C53.0085 23.8634 53.8079 23.5497 54.3945 22.9585C54.9409 22.4188 55.2618 21.6648 55.3162 20.8373L55.3202 20.6629C55.3202 19.5859 54.6981 18.7412 54.3535 18.2704M53.9294 22.4665C53.4784 22.9217 52.8484 23.1626 52.1246 23.1704C51.1517 23.1814 50.3041 22.6808 49.6607 21.7196C49.6607 21.7196 47.3293 18.1859 47.0345 17.7526C46.779 18.0037 46.2807 18.5019 46.1853 18.6012C46.179 18.7749 46.1593 20.4259 46.1593 20.4259L46.1482 20.5636H46.1593C46.1685 21.2679 45.8964 21.9472 45.4024 22.4532C44.9232 22.9122 44.2831 23.1687 43.617 23.1687C42.9508 23.1687 42.3107 22.9122 41.8315 22.4532C41.3371 21.947 41.0654 21.2668 41.0762 20.562V5.12292C41.0762 3.63689 42.1682 2.51376 43.615 2.51376C43.9462 2.51032 44.2748 2.57223 44.5816 2.69589C44.8885 2.81955 45.1675 3.0025 45.4024 3.2341C45.6485 3.48358 45.8425 3.77891 45.9731 4.10309C46.1037 4.42726 46.1683 4.77386 46.1632 5.12292V11.9712C46.8894 11.2336 48.3322 9.77421 48.3322 9.77421L48.5136 9.58728C49.1814 8.91231 49.8768 8.20762 50.9971 8.20762C51.3298 8.20375 51.66 8.2652 51.9687 8.38842C52.2773 8.51165 52.5583 8.69421 52.7956 8.9256C53.2392 9.36553 53.4885 9.96224 53.4886 10.5845C53.4886 11.5324 52.8847 12.1214 51.8873 13.0873C51.8873 13.0873 50.9601 13.9961 50.7196 14.2245C51.21 14.8736 52.1916 16.3245 52.9209 17.414C53.3412 18.0287 53.7094 18.5535 53.8182 18.7162C54.1257 19.1378 54.6981 19.9113 54.6397 20.8147C54.6027 21.4521 54.3409 22.0606 53.9301 22.4673"
            fill="#DE2025"
          />
          <path
            d="M52.5197 17.6862C51.7155 16.4935 50.6172 14.8706 50.2096 14.3551L50.0795 14.1846L51.5523 12.7408C52.5229 11.8023 53.0085 11.333 53.0085 10.5869C53.0091 10.3413 52.9606 10.0981 52.8659 9.8712C52.7712 9.64433 52.6321 9.43832 52.4566 9.26508C52.265 9.07756 52.0374 8.93012 51.7872 8.83151C51.5371 8.73289 51.2695 8.68511 51.0004 8.691C50.0858 8.691 49.5134 9.26508 48.8614 9.9291L48.6729 10.116L45.6769 13.1468V5.12296C45.6844 4.54651 45.4636 3.99016 45.0619 3.57357C44.8716 3.38714 44.6459 3.2402 44.3977 3.14136C44.1496 3.04252 43.884 2.99376 43.6167 2.99793C42.4466 2.99793 41.5604 3.9091 41.5604 5.12296V20.5644C41.5502 21.1389 41.7693 21.6941 42.1699 22.1091C42.5576 22.4803 43.0754 22.6878 43.6143 22.6878C44.1532 22.6878 44.671 22.4803 45.0587 22.1091C45.4625 21.6913 45.6835 21.1322 45.6737 20.5535L45.7084 18.4018L47.1213 16.9831L50.0685 21.4498C50.6204 22.2624 51.3221 22.6941 52.1184 22.6879C52.716 22.6793 53.2277 22.4876 53.5849 22.1247C53.916 21.7978 54.1179 21.3121 54.1526 20.7857C54.1849 20.1147 53.7946 19.5132 53.4248 19.0056C53.2987 18.8359 52.9518 18.3268 52.5126 17.6862"
            fill="#DE2025"
          />
          <path
            d="M31.4274 16.8806C30.7296 16.915 30.225 17.1254 29.9294 17.5117C29.7176 17.7982 29.6067 18.1459 29.614 18.5011L29.6353 18.7608C29.7457 19.2879 30.2787 19.8761 31.4101 19.801C32.2032 19.7431 33.8022 19.2269 33.8022 17.9724V17.884C33.8211 17.6494 33.8582 16.9768 33.8582 16.4762C32.912 16.7163 31.5078 16.8735 31.44 16.8782L31.4274 16.8806ZM31.4858 17.6048L31.5094 17.5978C31.6356 17.5868 32.3459 17.5102 33.1044 17.3764L33.0808 17.8387L33.0721 17.9568V17.9677C33.0721 18.6575 31.943 19.0361 31.358 19.0814C30.4805 19.137 30.3504 18.6685 30.3402 18.6083L30.3354 18.5011C30.3314 18.3064 30.3881 18.1152 30.4978 17.9536C30.6674 17.7534 30.9875 17.629 31.4605 17.6079L31.4858 17.6048Z"
            fill="#DE2025"
          />
          <path
            d="M39.3024 11.9907C39.3024 10.7713 38.8774 9.67559 38.0827 8.81995C36.9142 7.56855 34.9817 6.84743 32.6243 6.77782C31.0214 6.73246 26.1504 6.59559 25.2493 10.4233C24.9804 11.5691 25.5331 12.8972 26.5447 13.5033C27.1072 13.8468 27.775 13.9794 28.4275 13.8772C25.9297 14.4942 24.4853 16.2235 24.4853 18.6426L24.4939 18.9868C24.628 21.4192 26.3862 23.8868 29.9957 23.9321C31.6593 23.9517 33.1108 23.4331 33.9796 23.0507C34.6932 23.7475 35.6977 24.0377 36.8078 23.8265C37.9597 23.6052 39.2858 22.8684 39.2858 20.5987L39.2669 20.149L39.2906 12.2097V12.2527L39.3024 11.9907ZM38.5431 20.1427C38.5518 20.2694 38.5691 20.4478 38.5691 20.6589C38.5691 21.4966 38.3326 22.8035 36.6769 23.1148C35.6109 23.3127 34.7137 22.9584 34.172 22.1434C33.5846 22.4563 31.9234 23.229 30.0035 23.2079C26.6472 23.1758 25.3273 20.8865 25.224 18.9437C25.0309 15.4829 27.9473 14.6421 29.2041 14.4536C30.1699 14.3026 32.0488 13.9288 32.8419 13.7497C33.8866 13.5205 34.34 12.7955 34.2564 12.205C34.161 11.5793 33.5247 11.0318 32.7836 10.9254C31.6072 10.7518 30.7983 10.9559 30.3867 11.523L30.207 11.7983C30.0445 12.0626 29.8411 12.3974 29.5376 12.6281C28.6924 13.2687 27.7131 13.3672 26.9207 12.8839C26.1646 12.4357 25.7539 11.4401 25.9596 10.5844C26.4753 8.36632 28.5883 7.37771 32.603 7.49816C34.761 7.56464 36.5137 8.20207 37.5473 9.31425C38.2278 10.0385 38.5723 10.9395 38.5723 11.986L38.5676 12.2159V12.2097L38.5431 20.1427ZM28.7405 13.8075C29.1908 13.686 29.6127 13.4779 29.9823 13.1951C30.3938 12.8823 30.6406 12.4732 30.8275 12.1784L30.9725 11.9531C31.2737 11.5378 32.0645 11.5527 32.6819 11.6348C33.1589 11.7075 33.4963 12.0392 33.5334 12.3145V12.3528C33.5334 12.5585 33.2819 12.9073 32.6795 13.045C31.8911 13.221 30.0406 13.5862 29.0897 13.7301L28.7405 13.8075Z"
            fill="#DE2025"
          />
          <path
            d="M32.5872 7.98631C28.8429 7.87916 26.8844 8.73793 26.4208 10.6964C26.2757 11.3455 26.5982 12.1347 27.1745 12.4741C27.799 12.848 28.5567 12.7682 29.2465 12.2465C29.4831 12.0659 29.6447 11.7952 29.7922 11.5544L29.9964 11.2415C30.5246 10.5196 31.4865 10.2506 32.8513 10.4437C33.8179 10.5861 34.6064 11.297 34.7388 12.1363C34.8602 12.9426 34.2855 13.9218 32.9451 14.2214C32.148 14.4083 30.2518 14.7783 29.2812 14.9308C28.1498 15.1091 25.5338 15.8443 25.708 18.9274C25.8011 20.6614 26.9861 22.6973 30.0129 22.7278C32.1417 22.7528 33.9283 21.7407 34.1278 21.6203L34.3438 21.4936L34.4637 21.7149C34.8949 22.4931 35.6463 22.8279 36.5924 22.6535C37.7317 22.4321 38.1843 21.6727 38.0613 20.1796V20.1687L38.085 12.2137C38.1354 11.1969 37.8358 10.3366 37.1924 9.65223C36.2542 8.63547 34.6206 8.05514 32.5903 7.99491M34.2855 17.9107V17.9748C34.2855 19.4366 32.6384 20.1999 31.4424 20.2836C30.0902 20.3697 29.3136 19.6345 29.1519 18.8609C29.1036 18.5761 29.113 18.2845 29.1796 18.0033C29.2462 17.7221 29.3687 17.4569 29.5398 17.2232C29.9341 16.7156 30.5561 16.4411 31.3927 16.3996C31.4621 16.3996 33.1761 16.2127 34.0166 15.9303L34.3265 15.8318L34.3399 16.1517L34.3454 16.4309C34.3454 16.9174 34.3044 17.6002 34.2855 17.9122"
            fill="#DE2025"
          />
          <path
            d="M75.2993 12.2527C74.9999 12.2466 74.7023 12.301 74.4247 12.4126C74.1471 12.5242 73.8953 12.6907 73.6846 12.9019C73.124 13.4564 72.8134 14.3418 72.8134 15.3844C72.8134 16.4269 73.1288 17.3123 73.7004 17.8715C74.1313 18.2834 74.7065 18.5135 75.3049 18.5135C75.9033 18.5135 76.4784 18.2834 76.9093 17.8715C77.4762 17.3123 77.7908 16.4269 77.7908 15.3844C77.7908 14.3418 77.4754 13.4603 76.9093 12.8933C76.6985 12.6842 76.4471 12.5197 76.1704 12.4096C75.8937 12.2995 75.5974 12.2461 75.2993 12.2527ZM76.3543 17.3491C76.0548 17.6226 75.6627 17.7745 75.2556 17.7745C74.8485 17.7745 74.4563 17.6226 74.1569 17.3491C73.728 16.9142 73.4852 16.2134 73.4852 15.3648C73.4852 14.5162 73.7217 13.8068 74.1443 13.3876C74.4422 13.1081 74.8363 12.9516 75.2464 12.95C75.6565 12.9484 76.0518 13.1018 76.3519 13.379C76.7856 13.8068 77.0213 14.5115 77.0213 15.3648C77.0213 16.2181 76.7848 16.9142 76.3519 17.3491"
            fill="#DE2025"
          />
          <path
            d="M80.8656 9.07261C79.3857 7.59987 77.4508 6.82166 75.2519 6.82166C72.9898 6.82166 70.9312 7.6859 69.445 9.26579C67.9809 10.83 67.1767 12.9926 67.1767 15.3663C67.1767 17.8316 68.0542 20.0708 69.6468 21.6554C71.1244 23.1234 73.0663 23.9017 75.2519 23.9017C77.4508 23.9017 79.3857 23.1234 80.8656 21.6554C82.4582 20.0708 83.3334 17.8316 83.3334 15.3663C83.3334 12.9011 82.4582 10.6572 80.8656 9.07573M80.402 21.1697C79.0616 22.5048 77.2971 23.211 75.2976 23.211C73.2981 23.211 71.5423 22.5071 70.1995 21.1697C68.7401 19.7189 67.9399 17.6603 67.9399 15.3843C67.9399 10.848 71.04 7.55607 75.2976 7.55607C77.2971 7.55607 79.0655 8.25998 80.402 9.59819C81.8582 11.049 82.6727 13.1084 82.6727 15.3859C82.6727 17.6634 81.8582 19.7204 80.402 21.1697Z"
            fill="#DE2025"
          />
          <path
            d="M80.0646 9.93293C78.8188 8.69091 77.1655 8.03784 75.2977 8.03784C71.316 8.03784 68.4185 11.1264 68.4185 15.3898C68.4185 17.5391 69.1707 19.4756 70.5394 20.8318C71.7859 22.0832 73.4346 22.7316 75.2977 22.7316C77.1607 22.7316 78.8188 22.0824 80.0646 20.8318C81.4293 19.4756 82.1839 17.5391 82.1839 15.3898C82.1839 13.2405 81.4293 11.2969 80.0646 9.93605M77.2483 18.2156C76.7342 18.7256 76.0656 18.9899 75.2977 18.9899C74.9377 18.9967 74.58 18.9317 74.2458 18.7987C73.9117 18.6657 73.6079 18.4674 73.3526 18.2156C72.6997 17.5602 72.3363 16.5567 72.3363 15.3898C72.3363 14.2229 72.6911 13.21 73.3415 12.5632C73.5994 12.3113 73.9051 12.1124 74.2408 11.9782C74.5765 11.844 74.9357 11.777 75.2977 11.7811C75.6585 11.7747 76.0171 11.84 76.3521 11.9732C76.6871 12.1065 76.9918 12.305 77.2483 12.5569C77.9042 13.2124 78.2685 14.2205 78.2685 15.3898C78.2685 16.5591 77.9042 17.5602 77.2483 18.2156Z"
            fill="#DE2025"
          />
        </svg>